<svg width="578" height="496" viewBox="0 0 578 496" fill="none" xmlns="http://www.w3.org/2000/svg">
<path d="M11 236.186L60.0365 159.649L139.571 208.68L167.678 172.804H199.372V81.9175L252.595 62.1856L280.701 86.701V113.608L294.455 109.423L291.465 40.0619L328.542 23.9175V2.39175L356.05 0L365.618 19.732L400.9 16.1443L408.674 0L448.143 19.732V40.0619L440.369 47.835L442.761 62.1856L431.997 66.3711L434.389 84.9072L459.505 89.0928L461.299 118.392L449.339 124.371V136.33L465.485 142.309L461.299 194.33L438.575 203.299L440.369 232L461.299 240.371L551 203.299L548.608 271.464L501.963 290L486.415 327.67L522.894 346.804L475.053 411.979L434.987 414.969V437.691L394.322 464L354.256 449.052V397.629L336.914 421.546L312.395 423.34L307.013 407.794L263.359 449.052H241.233L238.841 431.113H217.91L216.116 449.052L187.412 446.062L151.532 353.381L135.983 354.577L130.003 392.247L86.3488 387.464L88.7409 285.814L100.103 268.474L64.8206 272.062L11 236.186Z" fill="#EBEBEE"/>
<path d="M33.8223 145.636L292.723 306.241L353.13 266.17L423.704 287.701L459.589 232.677L555.198 193.102" stroke="white" stroke-width="12"/>
<circle opacity="0.1" cx="304.5" cy="193.5" r="57.5" fill="#2A2C35"/>
<circle opacity="0.1" cx="218.5" cy="286.5" r="49.5" fill="#2A2C35"/>
<circle opacity="0.1" cx="409.5" cy="312.5" r="80.5" fill="#2A2C35"/>
<path d="M407.199 305.857V308.865H408.921V310.109H407.199V313.104H405.681V305.857H407.199ZM397.41 312.064C400.205 311.299 401.873 309.788 402.133 307.936H397.97V306.705H403.781C403.787 309.952 401.668 312.263 398.011 313.295L397.41 312.064ZM399.078 315.729C399.064 314.204 400.718 313.254 403.206 313.254C405.715 313.254 407.335 314.204 407.335 315.729C407.335 317.267 405.715 318.21 403.206 318.203C400.718 318.21 399.064 317.267 399.078 315.729ZM400.581 315.729C400.575 316.535 401.573 317.014 403.206 317.014C404.833 317.014 405.838 316.535 405.845 315.729C405.838 314.915 404.833 314.443 403.206 314.443C401.573 314.443 400.575 314.915 400.581 315.729ZM419.018 305.871V308.551H420.755V309.809H419.018V312.83H417.501V305.871H419.018ZM409.803 312.078V306.473H411.335V310.827C412.914 310.807 414.589 310.663 416.393 310.314L416.571 311.559C414.52 311.969 412.62 312.078 410.829 312.078H409.803ZM411.02 318.053V313.432H419.018V318.053H411.02ZM412.51 316.85H417.528V314.621H412.51V316.85Z" fill="black"/>
<path d="M302.199 186.857V189.865H303.921V191.109H302.199V194.104H300.681V186.857H302.199ZM292.41 193.064C295.205 192.299 296.873 190.788 297.133 188.936H292.97V187.705H298.781C298.787 190.952 296.668 193.263 293.011 194.295L292.41 193.064ZM294.078 196.729C294.064 195.204 295.718 194.254 298.206 194.254C300.715 194.254 302.335 195.204 302.335 196.729C302.335 198.267 300.715 199.21 298.206 199.203C295.718 199.21 294.064 198.267 294.078 196.729ZM295.581 196.729C295.575 197.535 296.573 198.014 298.206 198.014C299.833 198.014 300.838 197.535 300.845 196.729C300.838 195.915 299.833 195.443 298.206 195.443C296.573 195.443 295.575 195.915 295.581 196.729ZM315.536 192.805V194.008H310.641V195.197H314.155V199.217H312.637V196.428H305.514V195.197H309.137V194.008H304.27V192.805H315.536ZM305.733 191.889V187.158H307.237V188.389H312.569V187.158H314.073V191.889H305.733ZM307.237 190.672H312.569V189.523H307.237V190.672Z" fill="black"/>
<path d="M203.918 280.76C205.032 280.76 205.955 281.382 206.509 282.469H209.4V279.857H210.904V292.23H209.4V287.555H206.618C206.078 288.785 205.107 289.496 203.918 289.496C202.058 289.496 200.739 287.808 200.746 285.121C200.739 282.455 202.058 280.76 203.918 280.76ZM202.209 285.121C202.202 287.021 202.899 288.122 203.918 288.129C204.943 288.122 205.634 287.021 205.64 285.121C205.634 283.234 204.943 282.127 203.918 282.127C202.899 282.127 202.202 283.234 202.209 285.121ZM206.939 283.713C207.028 284.144 207.076 284.615 207.076 285.121C207.076 285.545 207.042 285.948 206.973 286.324H209.4V283.713H206.939ZM216.366 280.719C218.328 280.712 219.757 281.949 219.771 283.699C219.757 285.456 218.328 286.687 216.366 286.693C214.425 286.687 212.969 285.456 212.976 283.699C212.969 281.949 214.425 280.712 216.366 280.719ZM212.415 288.402C214.644 288.402 217.727 288.375 220.399 287.992L220.522 289.1C217.754 289.626 214.787 289.646 212.606 289.646L212.415 288.402ZM214.479 283.699C214.473 284.731 215.286 285.367 216.366 285.367C217.46 285.367 218.273 284.731 218.28 283.699C218.273 282.674 217.467 282.031 216.366 282.031C215.286 282.031 214.473 282.674 214.479 283.699ZM221.138 292.23V279.857H222.655V292.23H221.138ZM234.215 285.477V286.68H230.551V289.51H235.473V290.754H224.18V289.51H229.047V286.68H225.547V280.773H234.119V281.99H227.065V285.477H234.215Z" fill="black"/>
<circle opacity="0.1" cx="534" cy="452" r="44" fill="#2A2C35"/>
<path d="M533.73 452.256V453.473H528.958V455.605H527.454V453.473H522.437V452.256H533.73ZM523.804 457.971V454.566H525.308V456.74H532.486V457.971H523.804ZM523.913 451.285V446.254H525.417V447.648H530.749V446.254H532.253V451.285H523.913ZM525.417 450.082H530.749V448.783H525.417V450.082ZM544.032 445.857V448.893H545.741V450.137H544.032V453.076H542.501V445.857H544.032ZM534.749 452.297V446.732H540.286V447.963H536.253V451.066C538.618 451.06 539.937 450.984 541.393 450.684L541.544 451.9C539.944 452.242 538.488 452.297 535.747 452.297H534.749ZM535.815 455.742C535.815 454.211 537.442 453.309 539.999 453.309C542.535 453.309 544.134 454.211 544.141 455.742C544.134 457.301 542.535 458.203 539.999 458.203C537.442 458.203 535.815 457.301 535.815 455.742ZM537.319 455.742C537.312 456.542 538.303 456.986 539.999 456.986C541.66 456.986 542.658 456.542 542.665 455.742C542.658 454.956 541.66 454.519 539.999 454.525C538.303 454.519 537.312 454.956 537.319 455.742Z" fill="black"/>
<circle opacity="0.1" cx="33" cy="325" r="30" fill="#2A2C35"/>
<path d="M31.7455 318.871V327.799H30.2142V318.871H31.7455ZM21.6693 322.768C21.6693 320.97 23.1254 319.685 25.0052 319.678C26.8851 319.685 28.3343 320.97 28.3275 322.768C28.3343 324.593 26.8851 325.871 25.0052 325.871C23.1254 325.871 21.6693 324.593 21.6693 322.768ZM23.1595 322.768C23.1527 323.861 23.9457 324.545 25.0052 324.545C26.0375 324.545 26.8373 323.861 26.8373 322.768C26.8373 321.701 26.0375 321.004 25.0052 321.004C23.9457 321.004 23.1527 321.701 23.1595 322.768ZM23.5697 330.971V326.896H25.1009V329.74H32.0873V330.971H23.5697ZM37.7135 321.783C37.7067 323.253 38.7389 324.682 40.694 325.283L39.9557 326.473C38.5543 326.056 37.5358 325.16 36.9752 324.025C36.4284 325.249 35.4098 326.213 33.9674 326.678L33.2291 325.488C35.1774 324.88 36.1959 323.369 36.1959 321.783V321.592H33.612V320.389H36.1959V318.939H37.7272V320.389H40.2975V321.592H37.7135V321.783ZM35.5123 330.971V327.252H37.0299V329.74H43.9342V330.971H35.5123ZM39.8873 323.766V322.549H42.1022V318.871H43.6198V328.045H42.1022V323.766H39.8873Z" fill="black"/>
<path d="M407.499 93.2852V94.5156H403.849V97.5098H408.744V98.7402H397.451V97.5098H402.318V94.5156H398.749V88.8418H400.308V93.2852H407.499ZM419.633 87.8711V97.2227H418.102V96.1426H415.682V95.0762H418.102V87.8711H419.633ZM409.215 93.4219C411.492 93.4082 414.561 93.3877 417.186 93.0527L417.268 94.1465C416.25 94.3174 415.197 94.4268 414.151 94.502V96.8809H412.633V94.584C411.478 94.6318 410.378 94.6387 409.407 94.6387L409.215 93.4219ZM410.159 90.5098C410.159 89.2041 411.417 88.3154 413.249 88.3223C415.047 88.3154 416.311 89.2041 416.325 90.5098C416.311 91.8359 415.047 92.6768 413.249 92.6836C411.417 92.6768 410.159 91.8359 410.159 90.5098ZM410.856 99.9707V96.3203H412.374V98.7402H419.921V99.9707H410.856ZM411.594 90.5098C411.594 91.1797 412.257 91.5693 413.249 91.5762C414.192 91.5693 414.869 91.1797 414.876 90.5098C414.869 89.8398 414.192 89.4365 413.249 89.4434C412.257 89.4365 411.594 89.8398 411.594 90.5098Z" fill="black"/>
<circle cx="409" cy="109" r="3" fill="black"/>
<path d="M107.951 132.254C109.824 132.261 111.218 133.416 111.232 135.043C111.218 136.677 109.824 137.825 107.951 137.832C106.064 137.825 104.669 136.677 104.669 135.043C104.669 133.416 106.064 132.261 107.951 132.254ZM106.146 135.043C106.146 136 106.911 136.602 107.951 136.602C108.99 136.602 109.748 136 109.755 135.043C109.748 134.106 108.99 133.505 107.951 133.512C106.911 133.505 106.146 134.106 106.146 135.043ZM106.542 139.828V138.639H114.745V141.865H108.06V142.863H115.115V144.066H106.57V140.744H113.228V139.828H106.542ZM113.214 138.105V131.857H114.745V138.105H113.214ZM120.7 134.045C120.686 135.665 121.712 137.217 123.653 137.846L122.86 139.049C121.493 138.584 120.515 137.654 119.975 136.465C119.428 137.777 118.41 138.803 116.967 139.309L116.12 138.105C118.15 137.442 119.169 135.788 119.169 134.031V132.623H120.7V134.045ZM118.102 143.971V140.047H119.661V142.74H126.51V143.971H118.102ZM124.501 140.936V131.857H126.018V135.508H127.741V136.793H126.018V140.936H124.501Z" fill="black"/>
<circle cx="116" cy="153" r="3" fill="black"/>
<path d="M6.9857 160.609C6.99254 163.815 4.81188 166.044 1.13414 166.994L0.532578 165.818C3.41051 165.073 5.09898 163.617 5.35191 161.812H1.24352V160.609H6.9857ZM2.58336 172.053V167.322H10.7455V172.053H2.58336ZM4.08727 170.85H9.25523V168.525H4.08727V170.85ZM9.21422 166.789V159.871H10.7455V166.789H9.21422ZM23.5631 169.51V170.781H12.2702V169.51H17.1237V167.076H13.2409V165.873H14.9772V162.182H13.1998V160.951H22.5788V162.182H20.7741V165.873H22.5377V167.076H18.6276V169.51H23.5631ZM16.4948 165.873H19.2702V162.182H16.4948V165.873Z" fill="black"/>
<circle cx="12" cy="181" r="3" fill="black"/>
</svg>
