<svg width="640" height="532" viewBox="0 0 640 532" fill="none" xmlns="http://www.w3.org/2000/svg">
<path d="M40 254.186L89.0365 177.649L168.571 226.68L196.678 190.804H228.372V99.9175L281.595 80.1856L309.701 104.701V131.608L323.455 127.423L320.465 58.0619L357.542 41.9175V20.3918L385.05 18L394.618 37.732L429.9 34.1443L437.674 18L477.143 37.732V58.0619L469.369 65.835L471.761 80.1856L460.997 84.3711L463.389 102.907L488.505 107.093L490.299 136.392L478.339 142.371V154.33L494.485 160.309L490.299 212.33L467.575 221.299L469.369 250L490.299 258.371L580 221.299L577.608 289.464L530.963 308L515.415 345.67L551.894 364.804L504.053 429.979L463.987 432.969V455.691L423.322 482L383.256 467.052V415.629L365.914 439.546L341.395 441.34L336.013 425.794L292.359 467.052H270.233L267.841 449.113H246.91L245.116 467.052L216.412 464.062L180.532 371.381L164.983 372.577L159.003 410.247L115.349 405.464L117.741 303.814L129.103 286.474L93.8206 290.062L40 254.186Z" fill="#EBEBEE"/>
<path d="M62.8223 163.636L321.723 324.241L382.13 284.17L452.704 305.701L488.589 250.677L584.198 211.102" stroke="white" stroke-width="12"/>
<circle opacity="0.1" cx="333.5" cy="211.5" r="57.5" fill="#2A2C35"/>
<circle opacity="0.1" cx="247.5" cy="304.5" r="49.5" fill="#2A2C35"/>
<circle opacity="0.1" cx="438.5" cy="330.5" r="80.5" fill="#2A2C35"/>
<path d="M436.199 323.857V326.865H437.921V328.109H436.199V331.104H434.681V323.857H436.199ZM426.41 330.064C429.205 329.299 430.873 327.788 431.133 325.936H426.97V324.705H432.781C432.787 327.952 430.668 330.263 427.011 331.295L426.41 330.064ZM428.078 333.729C428.064 332.204 429.718 331.254 432.206 331.254C434.715 331.254 436.335 332.204 436.335 333.729C436.335 335.267 434.715 336.21 432.206 336.203C429.718 336.21 428.064 335.267 428.078 333.729ZM429.581 333.729C429.575 334.535 430.573 335.014 432.206 335.014C433.833 335.014 434.838 334.535 434.845 333.729C434.838 332.915 433.833 332.443 432.206 332.443C430.573 332.443 429.575 332.915 429.581 333.729ZM448.018 323.871V326.551H449.755V327.809H448.018V330.83H446.501V323.871H448.018ZM438.803 330.078V324.473H440.335V328.827C441.914 328.807 443.589 328.663 445.393 328.314L445.571 329.559C443.52 329.969 441.62 330.078 439.829 330.078H438.803ZM440.02 336.053V331.432H448.018V336.053H440.02ZM441.51 334.85H446.528V332.621H441.51V334.85Z" fill="black"/>
<path d="M331.199 204.857V207.865H332.921V209.109H331.199V212.104H329.681V204.857H331.199ZM321.41 211.064C324.205 210.299 325.873 208.788 326.133 206.936H321.97V205.705H327.781C327.787 208.952 325.668 211.263 322.011 212.295L321.41 211.064ZM323.078 214.729C323.064 213.204 324.718 212.254 327.206 212.254C329.715 212.254 331.335 213.204 331.335 214.729C331.335 216.267 329.715 217.21 327.206 217.203C324.718 217.21 323.064 216.267 323.078 214.729ZM324.581 214.729C324.575 215.535 325.573 216.014 327.206 216.014C328.833 216.014 329.838 215.535 329.845 214.729C329.838 213.915 328.833 213.443 327.206 213.443C325.573 213.443 324.575 213.915 324.581 214.729ZM344.536 210.805V212.008H339.641V213.197H343.155V217.217H341.637V214.428H334.514V213.197H338.137V212.008H333.27V210.805H344.536ZM334.733 209.889V205.158H336.237V206.389H341.569V205.158H343.073V209.889H334.733ZM336.237 208.672H341.569V207.523H336.237V208.672Z" fill="black"/>
<path d="M232.918 298.76C234.032 298.76 234.955 299.382 235.509 300.469H238.4V297.857H239.904V310.23H238.4V305.555H235.618C235.078 306.785 234.107 307.496 232.918 307.496C231.058 307.496 229.739 305.808 229.746 303.121C229.739 300.455 231.058 298.76 232.918 298.76ZM231.209 303.121C231.202 305.021 231.899 306.122 232.918 306.129C233.943 306.122 234.634 305.021 234.64 303.121C234.634 301.234 233.943 300.127 232.918 300.127C231.899 300.127 231.202 301.234 231.209 303.121ZM235.939 301.713C236.028 302.144 236.076 302.615 236.076 303.121C236.076 303.545 236.042 303.948 235.973 304.324H238.4V301.713H235.939ZM245.366 298.719C247.328 298.712 248.757 299.949 248.771 301.699C248.757 303.456 247.328 304.687 245.366 304.693C243.425 304.687 241.969 303.456 241.976 301.699C241.969 299.949 243.425 298.712 245.366 298.719ZM241.415 306.402C243.644 306.402 246.727 306.375 249.399 305.992L249.522 307.1C246.754 307.626 243.787 307.646 241.606 307.646L241.415 306.402ZM243.479 301.699C243.473 302.731 244.286 303.367 245.366 303.367C246.46 303.367 247.273 302.731 247.28 301.699C247.273 300.674 246.467 300.031 245.366 300.031C244.286 300.031 243.473 300.674 243.479 301.699ZM250.138 310.23V297.857H251.655V310.23H250.138ZM263.215 303.477V304.68H259.551V307.51H264.473V308.754H253.18V307.51H258.047V304.68H254.547V298.773H263.119V299.99H256.065V303.477H263.215Z" fill="black"/>
<circle opacity="0.1" cx="563" cy="470" r="44" fill="#2A2C35"/>
<path d="M562.73 470.256V471.473H557.958V473.605H556.454V471.473H551.437V470.256H562.73ZM552.804 475.971V472.566H554.308V474.74H561.486V475.971H552.804ZM552.913 469.285V464.254H554.417V465.648H559.749V464.254H561.253V469.285H552.913ZM554.417 468.082H559.749V466.783H554.417V468.082ZM573.032 463.857V466.893H574.741V468.137H573.032V471.076H571.501V463.857H573.032ZM563.749 470.297V464.732H569.286V465.963H565.253V469.066C567.618 469.06 568.937 468.984 570.393 468.684L570.544 469.9C568.944 470.242 567.488 470.297 564.747 470.297H563.749ZM564.815 473.742C564.815 472.211 566.442 471.309 568.999 471.309C571.535 471.309 573.134 472.211 573.141 473.742C573.134 475.301 571.535 476.203 568.999 476.203C566.442 476.203 564.815 475.301 564.815 473.742ZM566.319 473.742C566.312 474.542 567.303 474.986 568.999 474.986C570.66 474.986 571.658 474.542 571.665 473.742C571.658 472.956 570.66 472.519 568.999 472.525C567.303 472.519 566.312 472.956 566.319 473.742Z" fill="black"/>
<circle opacity="0.1" cx="62" cy="343" r="30" fill="#2A2C35"/>
<path d="M60.7455 336.871V345.799H59.2142V336.871H60.7455ZM50.6693 340.768C50.6693 338.97 52.1254 337.685 54.0052 337.678C55.8851 337.685 57.3343 338.97 57.3275 340.768C57.3343 342.593 55.8851 343.871 54.0052 343.871C52.1254 343.871 50.6693 342.593 50.6693 340.768ZM52.1595 340.768C52.1527 341.861 52.9457 342.545 54.0052 342.545C55.0375 342.545 55.8373 341.861 55.8373 340.768C55.8373 339.701 55.0375 339.004 54.0052 339.004C52.9457 339.004 52.1527 339.701 52.1595 340.768ZM52.5697 348.971V344.896H54.1009V347.74H61.0873V348.971H52.5697ZM66.7135 339.783C66.7067 341.253 67.7389 342.682 69.694 343.283L68.9557 344.473C67.5543 344.056 66.5358 343.16 65.9752 342.025C65.4284 343.249 64.4098 344.213 62.9674 344.678L62.2291 343.488C64.1774 342.88 65.1959 341.369 65.1959 339.783V339.592H62.612V338.389H65.1959V336.939H66.7272V338.389H69.2975V339.592H66.7135V339.783ZM64.5123 348.971V345.252H66.0299V347.74H72.9342V348.971H64.5123ZM68.8873 341.766V340.549H71.1022V336.871H72.6198V346.045H71.1022V341.766H68.8873Z" fill="black"/>
<path d="M436.499 111.285V112.516H432.849V115.51H437.744V116.74H426.451V115.51H431.318V112.516H427.749V106.842H429.308V111.285H436.499ZM448.633 105.871V115.223H447.102V114.143H444.682V113.076H447.102V105.871H448.633ZM438.215 111.422C440.492 111.408 443.561 111.388 446.186 111.053L446.268 112.146C445.25 112.317 444.197 112.427 443.151 112.502V114.881H441.633V112.584C440.478 112.632 439.378 112.639 438.407 112.639L438.215 111.422ZM439.159 108.51C439.159 107.204 440.417 106.315 442.249 106.322C444.047 106.315 445.311 107.204 445.325 108.51C445.311 109.836 444.047 110.677 442.249 110.684C440.417 110.677 439.159 109.836 439.159 108.51ZM439.856 117.971V114.32H441.374V116.74H448.921V117.971H439.856ZM440.594 108.51C440.594 109.18 441.257 109.569 442.249 109.576C443.192 109.569 443.869 109.18 443.876 108.51C443.869 107.84 443.192 107.437 442.249 107.443C441.257 107.437 440.594 107.84 440.594 108.51Z" fill="black"/>
<circle cx="438" cy="127" r="3" fill="black"/>
<path d="M136.951 150.254C138.824 150.261 140.218 151.416 140.232 153.043C140.218 154.677 138.824 155.825 136.951 155.832C135.064 155.825 133.669 154.677 133.669 153.043C133.669 151.416 135.064 150.261 136.951 150.254ZM135.146 153.043C135.146 154 135.911 154.602 136.951 154.602C137.99 154.602 138.748 154 138.755 153.043C138.748 152.106 137.99 151.505 136.951 151.512C135.911 151.505 135.146 152.106 135.146 153.043ZM135.542 157.828V156.639H143.745V159.865H137.06V160.863H144.115V162.066H135.57V158.744H142.228V157.828H135.542ZM142.214 156.105V149.857H143.745V156.105H142.214ZM149.7 152.045C149.686 153.665 150.712 155.217 152.653 155.846L151.86 157.049C150.493 156.584 149.515 155.654 148.975 154.465C148.428 155.777 147.41 156.803 145.967 157.309L145.12 156.105C147.15 155.442 148.169 153.788 148.169 152.031V150.623H149.7V152.045ZM147.102 161.971V158.047H148.661V160.74H155.51V161.971H147.102ZM153.501 158.936V149.857H155.018V153.508H156.741V154.793H155.018V158.936H153.501Z" fill="black"/>
<circle cx="145" cy="171" r="3" fill="black"/>
<path d="M35.9857 178.609C35.9925 181.815 33.8119 184.044 30.1341 184.994L29.5326 183.818C32.4105 183.073 34.099 181.617 34.3519 179.812H30.2435V178.609H35.9857ZM31.5834 190.053V185.322H39.7455V190.053H31.5834ZM33.0873 188.85H38.2552V186.525H33.0873V188.85ZM38.2142 184.789V177.871H39.7455V184.789H38.2142ZM52.5631 187.51V188.781H41.2702V187.51H46.1237V185.076H42.2409V183.873H43.9772V180.182H42.1998V178.951H51.5788V180.182H49.7741V183.873H51.5377V185.076H47.6276V187.51H52.5631ZM45.4948 183.873H48.2702V180.182H45.4948V183.873Z" fill="black"/>
<circle cx="41" cy="199" r="3" fill="black"/>
</svg>
