<svg width="111" height="34" viewBox="0 0 111 34" fill="none" xmlns="http://www.w3.org/2000/svg">
<title>문의하기 말풍선</title>
<style>
  g{display: none;}
  g:target{display: inline-block;}
</style>
<g id="white">
<mask id="path-1-inside-1_668_5851" fill="white">
<path fill-rule="evenodd" clip-rule="evenodd" d="M2 0C0.895431 0 0 0.89543 0 2V32C0 33.1046 0.89543 34 2 34H103C104.105 34 105 33.1046 105 32V21L111 17L105 13V2C105 0.895431 104.105 0 103 0H2Z"/>
</mask>
<path fill-rule="evenodd" clip-rule="evenodd" d="M2 0C0.895431 0 0 0.89543 0 2V32C0 33.1046 0.89543 34 2 34H103C104.105 34 105 33.1046 105 32V21L111 17L105 13V2C105 0.895431 104.105 0 103 0H2Z" fill="white"/>
<path d="M105 21L104.445 20.1679L104 20.4648V21H105ZM111 17L111.555 17.8321L112.803 17L111.555 16.1679L111 17ZM105 13H104V13.5352L104.445 13.8321L105 13ZM1 2C1 1.44772 1.44772 1 2 1V-1C0.343146 -1 -1 0.343146 -1 2H1ZM1 32V2H-1V32H1ZM2 33C1.44772 33 1 32.5523 1 32H-1C-1 33.6569 0.343145 35 2 35V33ZM103 33H2V35H103V33ZM104 32C104 32.5523 103.552 33 103 33V35C104.657 35 106 33.6569 106 32H104ZM104 21V32H106V21H104ZM105.555 21.8321L111.555 17.8321L110.445 16.1679L104.445 20.1679L105.555 21.8321ZM111.555 16.1679L105.555 12.1679L104.445 13.8321L110.445 17.8321L111.555 16.1679ZM104 2V13H106V2H104ZM103 1C103.552 1 104 1.44772 104 2H106C106 0.343145 104.657 -1 103 -1V1ZM2 1H103V-1H2V1Z" fill="#E0E0DF" mask="url(#path-1-inside-1_668_5851)"/>
<path d="M14.3037 12.8086V22H12.8945V14.2051H12.8438L10.6475 15.6396V14.3066L12.9326 12.8086H14.3037ZM19.7627 22.127C18.0234 22.127 16.7158 21.0669 16.6523 19.6006H18.0107C18.0869 20.3813 18.8359 20.9526 19.7627 20.959C20.8799 20.9526 21.6797 20.1465 21.6797 19.0547C21.6797 17.9375 20.8545 17.125 19.6992 17.1123C18.9629 17.1123 18.3979 17.3599 18.0869 17.9248H16.7666L17.3633 12.8086H22.5684V14.002H18.5186L18.2139 16.5791H18.3027C18.6836 16.2109 19.3311 15.9634 20.0293 15.957C21.7622 15.9634 23.0381 17.2456 23.0381 19.0166C23.0381 20.8257 21.6797 22.127 19.7627 22.127ZM34.54 20.6924V21.6826H24.1299V20.6924H28.7256V18.2168H29.9189V20.6924H34.54ZM24.6377 17.6709C26.9736 17.3281 28.6558 16.0078 28.7129 14.4082H25.0693V13.4307H28.7256V11.9072H29.9189V13.4307H33.5752V14.4082H29.9316C29.9888 16.0078 31.6709 17.3281 34.0068 17.6709L33.5498 18.6104C31.6455 18.312 30.0586 17.4106 29.3159 16.084C28.5796 17.4106 26.999 18.312 25.0947 18.6104L24.6377 17.6709ZM41.167 12.6689V13.6338H43.6426V11.7168H44.8486V20.0068H43.6426V17.0615H41.167V18.0518H35.8857V12.6689H41.167ZM37.0791 17.0996H39.9863V13.6465H37.0791V17.0996ZM37.4219 22.8379V19.2451H38.6406V21.8604H45.1025V22.8379H37.4219ZM41.167 16.0713H43.6426V14.624H41.167V16.0713ZM60.1465 17.2773V18.2295H55.5508V19.2705C57.6582 19.3721 58.8706 20.0322 58.877 21.1621C58.8706 22.3936 57.4297 23.0601 54.9541 23.0537C52.4658 23.0601 51.0059 22.3936 51.0059 21.1621C51.0059 20.0322 52.231 19.3721 54.3574 19.2705V18.2295H49.7744V17.2773H60.1465ZM50.3203 15.8174C52.5547 15.6396 54.1035 14.8398 54.2749 13.748H50.8154V12.7832H54.3574V11.6914H55.5508V12.7832H59.1055V13.748H55.627C55.7983 14.8398 57.3535 15.6396 59.5879 15.8174L59.2197 16.7441C57.252 16.5728 55.6587 15.9126 54.9541 14.8462C54.2432 15.9126 52.6562 16.5728 50.7012 16.7441L50.3203 15.8174ZM52.2246 21.1621C52.2183 21.8096 53.1958 22.1523 54.9541 22.1396C56.687 22.1523 57.6709 21.8096 57.6709 21.1621C57.6709 20.5146 56.687 20.1592 54.9541 20.1592C53.1958 20.1592 52.2183 20.5146 52.2246 21.1621ZM71.4072 17.6582V18.623H66.8877V20.7178H65.6943V18.623H60.9971V17.6582H71.4072ZM62.292 22.8379V19.7275H63.4854V21.8604H70.252V22.8379H62.292ZM62.3682 16.6553V12.0596H63.5615V13.4434H68.8301V12.0596H70.0361V16.6553H62.3682ZM63.5615 15.6904H68.8301V14.3447H63.5615V15.6904ZM77.8691 13.583V14.5605H72.2197V13.583H74.4541V12.0342H75.6475V13.583H77.8691ZM72.5879 17.8613C72.5815 16.3315 73.6226 15.2461 75.0508 15.2461C76.4917 15.2461 77.52 16.3315 77.5264 17.8613C77.52 19.4165 76.4917 20.5083 75.0508 20.502C73.6226 20.5083 72.5815 19.4165 72.5879 17.8613ZM73.6543 17.8613C73.6479 18.8262 74.2319 19.4736 75.0508 19.4736C75.8696 19.4736 76.46 18.8262 76.46 17.8613C76.46 16.9155 75.8696 16.2554 75.0508 16.249C74.2319 16.2554 73.6479 16.9155 73.6543 17.8613ZM78.3896 22.5459V11.958H79.5322V16.4395H80.8398V11.7041H81.9824V23.0791H80.8398V17.4297H79.5322V22.5459H78.3896ZM93.8906 20.6543V21.6572H83.4805V20.6543H85.9688V17.6836C85.0356 17.1694 84.4644 16.3569 84.4707 15.335C84.4644 13.5449 86.2227 12.3706 88.6602 12.3643C91.104 12.3706 92.8623 13.5449 92.8623 15.335C92.8623 16.3379 92.3164 17.144 91.4023 17.6582V20.6543H93.8906ZM85.6387 15.335C85.6387 16.5537 86.8765 17.3472 88.6602 17.3535C90.4312 17.3472 91.688 16.5537 91.6943 15.335C91.688 14.1099 90.4312 13.3291 88.6602 13.3291C86.8765 13.3291 85.6387 14.1099 85.6387 15.335ZM87.1621 20.6543H90.1836V18.1279C89.7202 18.2358 89.2061 18.293 88.6602 18.293C88.127 18.293 87.6191 18.2358 87.1621 18.1279V20.6543Z" fill="black"/>
</g>
<g id="mint">
<mask id="path-1-inside-1_668_5851" fill="#36b6b0">
<path fill-rule="evenodd" clip-rule="evenodd" d="M2 0C0.895431 0 0 0.89543 0 2V32C0 33.1046 0.89543 34 2 34H103C104.105 34 105 33.1046 105 32V21L111 17L105 13V2C105 0.895431 104.105 0 103 0H2Z"/>
</mask>
<path fill-rule="evenodd" clip-rule="evenodd" d="M2 0C0.895431 0 0 0.89543 0 2V32C0 33.1046 0.89543 34 2 34H103C104.105 34 105 33.1046 105 32V21L111 17L105 13V2C105 0.895431 104.105 0 103 0H2Z" fill="#36B6B0"/>
<path d="M105 21L104.445 20.1679L104 20.4648V21H105ZM111 17L111.555 17.8321L112.803 17L111.555 16.1679L111 17ZM105 13H104V13.5352L104.445 13.8321L105 13ZM1 2C1 1.44772 1.44772 1 2 1V-1C0.343146 -1 -1 0.343146 -1 2H1ZM1 32V2H-1V32H1ZM2 33C1.44772 33 1 32.5523 1 32H-1C-1 33.6569 0.343145 35 2 35V33ZM103 33H2V35H103V33ZM104 32C104 32.5523 103.552 33 103 33V35C104.657 35 106 33.6569 106 32H104ZM104 21V32H106V21H104ZM105.555 21.8321L111.555 17.8321L110.445 16.1679L104.445 20.1679L105.555 21.8321ZM111.555 16.1679L105.555 12.1679L104.445 13.8321L110.445 17.8321L111.555 16.1679ZM104 2V13H106V2H104ZM103 1C103.552 1 104 1.44772 104 2H106C106 0.343145 104.657 -1 103 -1V1ZM2 1H103V-1H2V1Z" fill="#36b6b0" mask="url(#path-1-inside-1_668_5851)"/>
<path d="M14.3037 12.8086V22H12.8945V14.2051H12.8438L10.6475 15.6396V14.3066L12.9326 12.8086H14.3037ZM19.7627 22.127C18.0234 22.127 16.7158 21.0669 16.6523 19.6006H18.0107C18.0869 20.3813 18.8359 20.9526 19.7627 20.959C20.8799 20.9526 21.6797 20.1465 21.6797 19.0547C21.6797 17.9375 20.8545 17.125 19.6992 17.1123C18.9629 17.1123 18.3979 17.3599 18.0869 17.9248H16.7666L17.3633 12.8086H22.5684V14.002H18.5186L18.2139 16.5791H18.3027C18.6836 16.2109 19.3311 15.9634 20.0293 15.957C21.7622 15.9634 23.0381 17.2456 23.0381 19.0166C23.0381 20.8257 21.6797 22.127 19.7627 22.127ZM34.54 20.6924V21.6826H24.1299V20.6924H28.7256V18.2168H29.9189V20.6924H34.54ZM24.6377 17.6709C26.9736 17.3281 28.6558 16.0078 28.7129 14.4082H25.0693V13.4307H28.7256V11.9072H29.9189V13.4307H33.5752V14.4082H29.9316C29.9888 16.0078 31.6709 17.3281 34.0068 17.6709L33.5498 18.6104C31.6455 18.312 30.0586 17.4106 29.3159 16.084C28.5796 17.4106 26.999 18.312 25.0947 18.6104L24.6377 17.6709ZM41.167 12.6689V13.6338H43.6426V11.7168H44.8486V20.0068H43.6426V17.0615H41.167V18.0518H35.8857V12.6689H41.167ZM37.0791 17.0996H39.9863V13.6465H37.0791V17.0996ZM37.4219 22.8379V19.2451H38.6406V21.8604H45.1025V22.8379H37.4219ZM41.167 16.0713H43.6426V14.624H41.167V16.0713ZM60.1465 17.2773V18.2295H55.5508V19.2705C57.6582 19.3721 58.8706 20.0322 58.877 21.1621C58.8706 22.3936 57.4297 23.0601 54.9541 23.0537C52.4658 23.0601 51.0059 22.3936 51.0059 21.1621C51.0059 20.0322 52.231 19.3721 54.3574 19.2705V18.2295H49.7744V17.2773H60.1465ZM50.3203 15.8174C52.5547 15.6396 54.1035 14.8398 54.2749 13.748H50.8154V12.7832H54.3574V11.6914H55.5508V12.7832H59.1055V13.748H55.627C55.7983 14.8398 57.3535 15.6396 59.5879 15.8174L59.2197 16.7441C57.252 16.5728 55.6587 15.9126 54.9541 14.8462C54.2432 15.9126 52.6562 16.5728 50.7012 16.7441L50.3203 15.8174ZM52.2246 21.1621C52.2183 21.8096 53.1958 22.1523 54.9541 22.1396C56.687 22.1523 57.6709 21.8096 57.6709 21.1621C57.6709 20.5146 56.687 20.1592 54.9541 20.1592C53.1958 20.1592 52.2183 20.5146 52.2246 21.1621ZM71.4072 17.6582V18.623H66.8877V20.7178H65.6943V18.623H60.9971V17.6582H71.4072ZM62.292 22.8379V19.7275H63.4854V21.8604H70.252V22.8379H62.292ZM62.3682 16.6553V12.0596H63.5615V13.4434H68.8301V12.0596H70.0361V16.6553H62.3682ZM63.5615 15.6904H68.8301V14.3447H63.5615V15.6904ZM77.8691 13.583V14.5605H72.2197V13.583H74.4541V12.0342H75.6475V13.583H77.8691ZM72.5879 17.8613C72.5815 16.3315 73.6226 15.2461 75.0508 15.2461C76.4917 15.2461 77.52 16.3315 77.5264 17.8613C77.52 19.4165 76.4917 20.5083 75.0508 20.502C73.6226 20.5083 72.5815 19.4165 72.5879 17.8613ZM73.6543 17.8613C73.6479 18.8262 74.2319 19.4736 75.0508 19.4736C75.8696 19.4736 76.46 18.8262 76.46 17.8613C76.46 16.9155 75.8696 16.2554 75.0508 16.249C74.2319 16.2554 73.6479 16.9155 73.6543 17.8613ZM78.3896 22.5459V11.958H79.5322V16.4395H80.8398V11.7041H81.9824V23.0791H80.8398V17.4297H79.5322V22.5459H78.3896ZM93.8906 20.6543V21.6572H83.4805V20.6543H85.9688V17.6836C85.0356 17.1694 84.4644 16.3569 84.4707 15.335C84.4644 13.5449 86.2227 12.3706 88.6602 12.3643C91.104 12.3706 92.8623 13.5449 92.8623 15.335C92.8623 16.3379 92.3164 17.144 91.4023 17.6582V20.6543H93.8906ZM85.6387 15.335C85.6387 16.5537 86.8765 17.3472 88.6602 17.3535C90.4312 17.3472 91.688 16.5537 91.6943 15.335C91.688 14.1099 90.4312 13.3291 88.6602 13.3291C86.8765 13.3291 85.6387 14.1099 85.6387 15.335ZM87.1621 20.6543H90.1836V18.1279C89.7202 18.2358 89.2061 18.293 88.6602 18.293C88.127 18.293 87.6191 18.2358 87.1621 18.1279V20.6543Z" fill="white"/>
</g>
</svg>
