<svg width="48" height="48" viewBox="0 0 48 48" fill="none" xmlns="http://www.w3.org/2000/svg">
<path d="M7 16V7H16" stroke="black" stroke-width="2"/>
<path d="M41 16V7H32" stroke="black" stroke-width="2"/>
<path d="M41 32L41 41L32 41" stroke="black" stroke-width="2"/>
<path d="M7 32L7 41L16 41" stroke="black" stroke-width="2"/>
<path d="M14 13V21" stroke="black" stroke-width="2"/>
<path d="M14 27V35" stroke="black" stroke-width="2"/>
<path d="M18 13V21" stroke="black" stroke-width="2"/>
<path d="M22 13V21" stroke="black" stroke-width="2"/>
<path d="M26 13V21" stroke="black" stroke-width="2"/>
<path d="M34 13V21" stroke="black" stroke-width="2"/>
<path d="M18 27V32" stroke="black" stroke-width="2"/>
<path d="M22 27V35" stroke="black" stroke-width="2"/>
<path d="M26 27V32" stroke="black" stroke-width="2"/>
<path d="M34 27V32" stroke="black" stroke-width="2"/>
<path d="M30 13V21" stroke="black" stroke-width="2"/>
<path d="M30 27V35" stroke="black" stroke-width="2"/>
<path d="M6 24H42" stroke="black" stroke-width="2"/>
</svg>
