<svg xmlns="http://www.w3.org/2000/svg" width="16" height="16" viewBox="0 0 16 16" fill="none">
  <path d="M13.2811 0.666748H2.71378C1.21812 0.666748 0 1.91687 0 3.44014V10.153C0 11.6815 1.22326 12.9264 2.71378 12.9264H6.44523L7.08769 14.061L7.71988 15.1798C7.83296 15.3846 8.12078 15.3846 8.239 15.1798L8.87118 14.061L9.51365 12.9264H13.2862C14.7819 12.9264 16 11.6763 16 10.153V3.44539C16 1.91687 14.7767 0.666748 13.2811 0.666748Z" fill="white"/>
  <path d="M8.75113 5.5813C7.91948 5.5813 7.24475 6.24589 7.24475 7.06747C7.24475 7.88905 7.91948 8.55364 8.75113 8.55364C9.58277 8.55364 10.2575 7.88905 10.2575 7.06747C10.2575 6.24589 9.588 5.5813 8.75113 5.5813ZM8.75113 7.77916C8.35361 7.77916 8.02932 7.45994 8.02932 7.06747C8.02932 6.675 8.35361 6.35578 8.75113 6.35578C9.14864 6.35578 9.47293 6.675 9.47293 7.06747C9.47293 7.45994 9.15387 7.77916 8.75113 7.77916Z" fill="black"/>
  <path d="M3.98506 5.58102C3.66077 5.58102 3.3574 5.70661 3.12203 5.92116V4.69141H2.28516V8.48533H3.12203V8.21845C3.3574 8.42777 3.65554 8.5586 3.98506 8.5586C4.73302 8.5586 5.33975 7.89401 5.33975 7.07242C5.33975 6.25084 4.73825 5.58102 3.98506 5.58102ZM3.81768 7.81028C3.50909 7.81028 3.24233 7.62712 3.12726 7.36024C3.09065 7.27128 3.0645 7.17185 3.0645 7.06719C3.0645 6.96253 3.08542 6.8631 3.12726 6.77414C3.24233 6.50726 3.50909 6.3241 3.81768 6.3241C4.23612 6.3241 4.57087 6.65378 4.57087 7.06719C4.57087 7.4806 4.23612 7.81028 3.81768 7.81028Z" fill="black"/>
  <path d="M12.8668 5.64399V5.87947C12.6315 5.69632 12.3386 5.58643 12.0247 5.58643C11.2558 5.58643 10.6334 6.23008 10.6334 7.02027C10.6334 7.81045 11.2558 8.45411 12.0247 8.45411C12.3438 8.45411 12.6367 8.34421 12.8668 8.16106V8.55876C12.8668 8.55876 12.7831 8.95124 12.1973 8.95124V9.68909C12.1973 9.68909 12.8302 9.76235 13.3951 9.19719C13.3951 9.19719 13.6566 8.91984 13.7142 8.55353V5.64399H12.8668ZM12.1816 7.74765C11.758 7.74765 11.418 7.41797 11.418 7.01503C11.418 6.61209 11.7632 6.28241 12.1816 6.28241C12.4798 6.28241 12.7413 6.44987 12.8668 6.69059C12.9191 6.79001 12.9453 6.89991 12.9453 7.01503C12.9453 7.13016 12.9139 7.24528 12.8668 7.33948C12.7413 7.58543 12.4798 7.74765 12.1816 7.74765Z" fill="black"/>
  <path d="M5.43359 4.61821V5.37699C5.43359 5.37699 5.82065 5.42932 5.89388 5.80609V8.48538H6.7569V5.80609V5.78516C6.7046 5.40839 6.47969 5.12581 6.47969 5.12581C5.98802 4.54495 5.43359 4.61821 5.43359 4.61821Z" fill="black"/>
</svg>