<svg width="24" height="24" viewBox="0 0 24 24" fill="none" xmlns="http://www.w3.org/2000/svg">
<mask id="path-1-inside-1_586_16350" fill="white">
<path fill-rule="evenodd" clip-rule="evenodd" d="M5.66703 7.03495C4.19432 8.50767 4.19432 10.8954 5.66703 12.3681L12.0001 18.7013L12.0004 18.701L12.0009 18.7014L18.334 12.3683C19.8067 10.8956 19.8067 8.50783 18.334 7.03511C16.8613 5.5624 14.4736 5.5624 13.0009 7.03511L12.0006 8.03539L11.0002 7.03495C9.52747 5.56224 7.13974 5.56224 5.66703 7.03495Z"/>
</mask>
<path d="M5.66703 12.3681L4.95992 13.0752H4.95992L5.66703 12.3681ZM5.66703 7.03495L6.37414 7.74206L5.66703 7.03495ZM12.0001 18.7013L11.293 19.4084L12.0001 20.1155L12.7072 19.4084L12.0001 18.7013ZM12.0004 18.701L12.7079 17.9942L12.0008 17.2864L11.2933 17.9938L12.0004 18.701ZM12.0009 18.7014L11.2934 19.4082L12.0006 20.116L12.708 19.4085L12.0009 18.7014ZM18.334 12.3683L17.6269 11.6612L18.334 12.3683ZM18.334 7.03511L19.0411 6.32801V6.32801L18.334 7.03511ZM13.0009 7.03511L12.2938 6.32801L12.2938 6.32801L13.0009 7.03511ZM12.0006 8.03539L11.2935 8.74249L12.0006 9.44961L12.7077 8.74249L12.0006 8.03539ZM11.0002 7.03495L11.7073 6.32785V6.32785L11.0002 7.03495ZM6.37414 11.661C5.29195 10.5788 5.29195 8.82425 6.37414 7.74206L4.95992 6.32785C3.09669 8.19109 3.09669 11.212 4.95992 13.0752L6.37414 11.661ZM12.7073 17.9942L6.37414 11.661L4.95992 13.0752L11.293 19.4084L12.7073 17.9942ZM11.2933 17.9938L11.293 17.9942L12.7072 19.4084L12.7076 19.4081L11.2933 17.9938ZM12.7084 17.9947L12.7079 17.9942L11.293 19.4077L11.2934 19.4082L12.7084 17.9947ZM17.6269 11.6612L11.2938 17.9943L12.708 19.4085L19.0411 13.0754L17.6269 11.6612ZM17.6269 7.74222C18.7091 8.82441 18.7091 10.579 17.6269 11.6612L19.0411 13.0754C20.9044 11.2122 20.9044 8.19125 19.0411 6.32801L17.6269 7.74222ZM13.708 7.74222C14.7902 6.66003 16.5447 6.66003 17.6269 7.74222L19.0411 6.32801C17.1779 4.46477 14.157 4.46477 12.2938 6.32801L13.708 7.74222ZM12.7077 8.74249L13.708 7.74222L12.2938 6.32801L11.2935 7.32828L12.7077 8.74249ZM10.2931 7.74206L11.2935 8.74249L12.7077 7.32828L11.7073 6.32785L10.2931 7.74206ZM6.37414 7.74206C7.45632 6.65987 9.21089 6.65987 10.2931 7.74206L11.7073 6.32785C9.84405 4.46461 6.82316 4.46461 4.95992 6.32785L6.37414 7.74206Z" fill="#C4C9CD" mask="url(#path-1-inside-1_586_16350)"/>
</svg>
