<svg width="24" height="24" viewBox="0 0 24 24" fill="none" xmlns="http://www.w3.org/2000/svg">
<title>하트 아이콘</title>
<style>
  g{display: none;}
  g:target{display: inline-block;}
</style>

<g id="off">
<mask id="path-1-inside-1_586_16350" fill="white">
<path fill-rule="evenodd" clip-rule="evenodd" d="M5.66703 7.03508C4.19432 8.50779 4.19432 10.8955 5.66703 12.3682L12.0001 18.7014L12.0004 18.7011L12.0009 18.7015L18.334 12.3684C19.8067 10.8957 19.8067 8.50795 18.334 7.03524C16.8613 5.56252 14.4736 5.56252 13.0009 7.03523L12.0006 8.03551L11.0002 7.03508C9.52747 5.56236 7.13974 5.56236 5.66703 7.03508Z"/>
</mask>
<path d="M5.66703 12.3682L4.95992 13.0753H4.95992L5.66703 12.3682ZM5.66703 7.03508L6.37414 7.74218L5.66703 7.03508ZM12.0001 18.7014L11.293 19.4085L12.0001 20.1156L12.7072 19.4085L12.0001 18.7014ZM12.0004 18.7011L12.7079 17.9943L12.0008 17.2865L11.2933 17.994L12.0004 18.7011ZM12.0009 18.7015L11.2934 19.4083L12.0006 20.1161L12.708 19.4086L12.0009 18.7015ZM18.334 12.3684L17.6269 11.6613L18.334 12.3684ZM18.334 7.03524L19.0411 6.32813V6.32813L18.334 7.03524ZM13.0009 7.03523L12.2938 6.32813L12.2938 6.32813L13.0009 7.03523ZM12.0006 8.03551L11.2935 8.74262L12.0006 9.44973L12.7077 8.74262L12.0006 8.03551ZM11.0002 7.03508L11.7073 6.32797V6.32797L11.0002 7.03508ZM6.37414 11.6611C5.29195 10.5789 5.29195 8.82437 6.37414 7.74218L4.95992 6.32797C3.09669 8.19121 3.09669 11.2121 4.95992 13.0753L6.37414 11.6611ZM12.7073 17.9943L6.37414 11.6611L4.95992 13.0753L11.293 19.4085L12.7073 17.9943ZM11.2933 17.994L11.293 17.9943L12.7072 19.4085L12.7076 19.4082L11.2933 17.994ZM12.7084 17.9948L12.7079 17.9943L11.293 19.4078L11.2934 19.4083L12.7084 17.9948ZM17.6269 11.6613L11.2938 17.9944L12.708 19.4086L19.0411 13.0755L17.6269 11.6613ZM17.6269 7.74234C18.7091 8.82453 18.7091 10.5791 17.6269 11.6613L19.0411 13.0755C20.9044 11.2123 20.9044 8.19137 19.0411 6.32813L17.6269 7.74234ZM13.708 7.74234C14.7902 6.66015 16.5447 6.66015 17.6269 7.74234L19.0411 6.32813C17.1779 4.46489 14.157 4.46489 12.2938 6.32813L13.708 7.74234ZM12.7077 8.74262L13.708 7.74234L12.2938 6.32813L11.2935 7.32841L12.7077 8.74262ZM10.2931 7.74218L11.2935 8.74262L12.7077 7.32841L11.7073 6.32797L10.2931 7.74218ZM6.37414 7.74218C7.45632 6.66 9.21089 6.66 10.2931 7.74218L11.7073 6.32797C9.84405 4.46473 6.82316 4.46473 4.95992 6.32797L6.37414 7.74218Z" fill="#C4C9CD" mask="url(#path-1-inside-1_586_16350)"/>
</g>

<g id="off_panel">
<mask id="path-1-inside-1_1618_15834" fill="white">
<path fill-rule="evenodd" clip-rule="evenodd" d="M5.66654 7.03495C4.19384 8.50767 4.19383 10.8954 5.66654 12.3681L11.9997 18.7013L12 18.701L12.0004 18.7014L18.3335 12.3683C19.8062 10.8956 19.8062 8.50783 18.3335 7.03511C16.8608 5.5624 14.4731 5.5624 13.0004 7.03511L12.0001 8.03539L10.9997 7.03495C9.52698 5.56224 7.13925 5.56224 5.66654 7.03495Z"/>
</mask>
<path d="M5.66654 12.3681L4.95943 13.0752H4.95943L5.66654 12.3681ZM5.66654 7.03495L6.37365 7.74206L5.66654 7.03495ZM11.9997 18.7013L11.2925 19.4084L11.9997 20.1155L12.7068 19.4084L11.9997 18.7013ZM12 18.701L12.7074 17.9942L12.0003 17.2864L11.2929 17.9938L12 18.701ZM12.0004 18.7014L11.293 19.4082L12.0001 20.116L12.7075 19.4085L12.0004 18.7014ZM18.3335 12.3683L17.6264 11.6612L18.3335 12.3683ZM18.3335 7.03511L19.0406 6.32801V6.32801L18.3335 7.03511ZM13.0004 7.03511L12.2933 6.32801L12.2933 6.32801L13.0004 7.03511ZM12.0001 8.03539L11.293 8.74249L12.0001 9.44961L12.7072 8.74249L12.0001 8.03539ZM10.9997 7.03495L11.7068 6.32785V6.32785L10.9997 7.03495ZM6.37365 11.661C5.29147 10.5788 5.29147 8.82425 6.37365 7.74206L4.95943 6.32785C3.09621 8.19109 3.0962 11.212 4.95943 13.0752L6.37365 11.661ZM12.7068 17.9942L6.37365 11.661L4.95943 13.0752L11.2925 19.4084L12.7068 17.9942ZM11.2929 17.9938L11.2925 17.9942L12.7068 19.4084L12.7071 19.4081L11.2929 17.9938ZM12.7079 17.9947L12.7074 17.9942L11.2925 19.4077L11.293 19.4082L12.7079 17.9947ZM17.6264 11.6612L11.2933 17.9943L12.7075 19.4085L19.0406 13.0754L17.6264 11.6612ZM17.6264 7.74222C18.7086 8.82441 18.7086 10.579 17.6264 11.6612L19.0406 13.0754C20.9039 11.2122 20.9039 8.19125 19.0406 6.32801L17.6264 7.74222ZM13.7075 7.74222C14.7897 6.66003 16.5442 6.66003 17.6264 7.74222L19.0406 6.32801C17.1774 4.46477 14.1565 4.46477 12.2933 6.32801L13.7075 7.74222ZM12.7072 8.74249L13.7075 7.74222L12.2933 6.32801L11.293 7.32828L12.7072 8.74249ZM10.2926 7.74206L11.293 8.74249L12.7072 7.32828L11.7068 6.32785L10.2926 7.74206ZM6.37365 7.74206C7.45583 6.65987 9.2104 6.65987 10.2926 7.74206L11.7068 6.32785C9.84356 4.46461 6.82267 4.46461 4.95943 6.32785L6.37365 7.74206Z" fill="#616161" mask="url(#path-1-inside-1_1618_15834)"/>
</g>

<g id="on">
<path fill-rule="evenodd" clip-rule="evenodd" d="M5.66703 7.03508C4.19432 8.50779 4.19432 10.8955 5.66703 12.3682L12.0001 18.7014L12.0004 18.7011L12.0009 18.7015L18.334 12.3684C19.8067 10.8957 19.8067 8.50795 18.334 7.03524C16.8613 5.56252 14.4736 5.56252 13.0009 7.03523L12.0006 8.03551L11.0002 7.03508C9.52747 5.56236 7.13974 5.56236 5.66703 7.03508Z" fill="#F56D4C"/>
</g>

</svg>

