<svg width="48" height="48" viewBox="0 0 48 48" fill="none" xmlns="http://www.w3.org/2000/svg">
<path fill-rule="evenodd" clip-rule="evenodd" d="M5.75146 12.8096C10.9433 9.08335 17.3148 6.88867 24.1995 6.88867C31.0862 6.88867 37.4593 9.08457 42.6519 12.8127L41.6 14.52C36.7157 10.9782 30.7029 8.88867 24.1995 8.88867C17.698 8.88867 11.6867 10.977 6.80317 14.517L5.75146 12.8096ZM11.3993 21.9786L10.3449 20.2668C14.1896 17.3427 18.9916 15.6065 24.1994 15.6065C29.4089 15.6065 34.2122 17.3438 38.0575 20.2694L37.0028 21.9811C33.4687 19.2396 29.0259 17.6065 24.1994 17.6065C19.3745 17.6065 14.9329 19.2386 11.3993 21.9786ZM16.024 29.4866L14.9592 27.7579C17.4359 25.6185 20.6667 24.3242 24.1996 24.3242C27.7335 24.3242 30.9652 25.6192 33.4422 27.7598L32.3772 29.4884C30.2222 27.5235 27.352 26.3242 24.1996 26.3242C21.0481 26.3242 18.1787 27.5227 16.024 29.4866Z" fill="black"/>
<circle cx="24" cy="37" r="3" stroke="black" stroke-width="2"/>
</svg>
