<svg width="48" height="48" viewBox="0 0 48 48" fill="none" xmlns="http://www.w3.org/2000/svg">
<path fill-rule="evenodd" clip-rule="evenodd" d="M12 12C14.7614 12 17 14.2386 17 17V19H19V17C19 14.2386 21.2386 12 24 12C26.7614 12 29 14.2386 29 17V19H31V17C31 14.2386 33.2386 12 36 12C38.7614 12 41 14.2386 41 17V34V35V37H43V35V17C43 13.134 39.866 10 36 10C33.4537 10 31.2249 11.3596 30 13.3924C28.7751 11.3596 26.5463 10 24 10C21.4537 10 19.2249 11.3596 18 13.3924C16.7751 11.3596 14.5463 10 12 10C8.13401 10 5 13.134 5 17V19H7V17C7 14.2386 9.23858 12 12 12ZM7 22H5V35V37H7H17H19H29H31H38V35H33H31H29H19H17H16H7V22Z" fill="black"/>
</svg>
