<svg width="48" height="48" viewBox="0 0 48 48" fill="none" xmlns="http://www.w3.org/2000/svg">
<path d="M12 19L5 16V32L12 29" stroke="black" stroke-width="2"/>
<path d="M36 19L43 16V32L36 29" stroke="black" stroke-width="2"/>
<path fill-rule="evenodd" clip-rule="evenodd" d="M17.636 30.3642C21.1508 33.8789 26.8492 33.8789 30.364 30.3642C33.8787 26.8494 33.8787 21.151 30.364 17.6362C26.8492 14.1215 21.1508 14.1215 17.636 17.6362C14.1213 21.151 14.1213 26.8494 17.636 30.3642ZM16.2218 31.7784C20.5176 36.0741 27.4824 36.0741 31.7782 31.7784C36.0739 27.4826 36.0739 20.5178 31.7782 16.222C27.4824 11.9263 20.5176 11.9263 16.2218 16.222C11.9261 20.5178 11.9261 27.4826 16.2218 31.7784Z" fill="black"/>
</svg>
