<svg width="119" height="14" viewBox="0 0 119 14" fill="none" xmlns="http://www.w3.org/2000/svg">
<g id="Group 3129">
<g id="sparkplus">
<path d="M79.7647 3.16381C79.5356 2.62406 79.1876 2.13919 78.7452 1.74299C78.2789 1.33249 77.7302 1.0196 77.1333 0.8239C76.4397 0.59879 75.7116 0.489526 74.9802 0.500781H69.7711C69.6988 0.500781 69.6295 0.528582 69.5784 0.578069C69.5273 0.627556 69.4986 0.694676 69.4986 0.764661V2.82903C69.4986 2.89901 69.5273 2.96613 69.5784 3.01562C69.6295 3.06511 69.6988 3.09291 69.7711 3.09291H72.4498V3.08393H74.7318C75.4733 3.08393 76.0578 3.25117 76.4854 3.58566C76.913 3.92015 77.1274 4.40902 77.1287 5.05226V5.08996C77.1343 5.35233 77.0825 5.61288 76.9768 5.85451C76.871 6.09613 76.7137 6.31336 76.5151 6.49193C76.1054 6.86591 75.5301 7.0529 74.7892 7.0529H72.7214C72.6856 7.0529 72.6502 7.04607 72.6172 7.0328C72.5842 7.01952 72.5542 7.00007 72.529 6.97556C72.5038 6.95104 72.4838 6.92194 72.4702 6.88993C72.4566 6.85792 72.4497 6.82363 72.4498 6.78902V4.03354C72.4497 3.99889 72.4425 3.9646 72.4287 3.93263C72.4149 3.90066 72.3947 3.87163 72.3693 3.84721C72.3439 3.82279 72.3138 3.80345 72.2807 3.7903C72.2476 3.77715 72.2121 3.77044 72.1764 3.77056H69.7711C69.699 3.77056 69.6298 3.79824 69.5787 3.84753C69.5277 3.89682 69.4988 3.96371 69.4986 4.03354V6.78902C69.4986 6.82382 69.4915 6.85829 69.4777 6.89042C69.4639 6.92255 69.4436 6.95172 69.4181 6.97625C69.3926 7.00078 69.3624 7.02018 69.3291 7.03333C69.2958 7.04649 69.2602 7.05314 69.2242 7.0529H66.3926C66.3564 7.05289 66.3205 7.05989 66.287 7.07349C66.2536 7.08709 66.2233 7.10701 66.1979 7.13208C66.1726 7.15716 66.1526 7.18689 66.1392 7.21953C66.1259 7.25217 66.1194 7.28706 66.1201 7.32217L66.1377 9.33896C66.1385 9.40848 66.1675 9.47491 66.2185 9.52381C66.2695 9.57272 66.3384 9.60015 66.4102 9.60015H69.2242C69.2963 9.60015 69.3653 9.62786 69.4163 9.67717C69.4672 9.72649 69.4958 9.79338 69.4958 9.86313V13.237C69.4961 13.3069 69.5249 13.3737 69.576 13.423C69.627 13.4723 69.6962 13.5 69.7683 13.5H72.1782C72.214 13.5001 72.2494 13.4934 72.2826 13.4803C72.3157 13.4671 72.3458 13.4478 72.3712 13.4234C72.3966 13.3989 72.4167 13.3699 72.4305 13.3379C72.4443 13.306 72.4515 13.2717 72.4516 13.237V9.86133C72.4515 9.82677 72.4585 9.79252 72.4721 9.76056C72.4857 9.7286 72.5057 9.69956 72.5309 9.67511C72.5561 9.65067 72.5861 9.6313 72.6191 9.61813C72.6521 9.60496 72.6875 9.59824 72.7232 9.59835H74.6956C75.4123 9.60322 76.1258 9.50645 76.8135 9.31114C77.4409 9.1345 78.0268 8.84122 78.5385 8.44769C79.0323 8.06228 79.4294 7.57341 79.6998 7.0179C79.9816 6.44765 80.1222 5.78496 80.1216 5.02982V4.99302C80.1296 4.36653 80.0089 3.74475 79.7666 3.16381" fill="black"/>
<path d="M5.79646 13.4996C4.73111 13.499 3.67397 13.3307 2.67205 13.0022C1.73078 12.6964 0.85905 12.2372 0.0997955 11.6471C0.0427588 11.6023 0.00729946 11.5391 0.00100703 11.4709C-0.00528541 11.4028 0.0180892 11.3351 0.0661275 11.2823L1.5254 9.69593C1.57227 9.64627 1.63851 9.61499 1.71024 9.60864C1.78197 9.6023 1.85362 9.62138 1.91018 9.66189C2.44967 10.0448 3.03619 10.3699 3.65804 10.6305C4.34936 10.9114 5.09958 11.0531 5.85706 11.0458C6.49387 11.0458 6.98799 10.9406 7.33942 10.73C7.50408 10.6394 7.6395 10.511 7.73204 10.3578C7.82459 10.2046 7.87099 10.032 7.86657 9.85736V9.82071C7.8702 9.65585 7.83271 9.49239 7.75691 9.34252C7.65907 9.1806 7.51396 9.04625 7.3375 8.95421C7.06792 8.80453 6.78117 8.68194 6.48233 8.58859C6.1155 8.46817 5.63998 8.34193 5.05576 8.20987C4.40627 8.06953 3.76644 7.89471 3.13955 7.68631C2.61643 7.51869 2.12513 7.27848 1.68316 6.97426C1.28499 6.69438 0.966102 6.33243 0.752959 5.91841C0.533635 5.49606 0.422048 4.97163 0.422048 4.34771V4.31106C0.412841 3.77302 0.534359 3.23973 0.777969 2.74909C1.013 2.28859 1.35414 1.87915 1.7784 1.54839C2.22958 1.19949 2.75278 0.935492 3.31751 0.771766C3.95261 0.584855 4.61706 0.49319 5.2847 0.500385C6.24285 0.491551 7.19556 0.632047 8.10129 0.915746C8.86524 1.16393 9.58405 1.51422 10.2339 1.95502C10.2929 1.99582 10.3323 2.05566 10.344 2.12211C10.3556 2.18857 10.3386 2.25654 10.2965 2.31192L9.0161 3.99867C8.97366 4.05253 8.90984 4.08936 8.83808 4.1014C8.76631 4.11344 8.69219 4.09977 8.63132 4.06324C8.12545 3.76089 7.58957 3.50206 7.03064 3.29011C6.46394 3.07302 5.8556 2.95945 5.24045 2.9559C4.64212 2.9559 4.19481 3.06149 3.89372 3.27179C3.75524 3.36059 3.64232 3.4783 3.56448 3.61497C3.48663 3.75165 3.44614 3.90329 3.44642 4.05713V4.09291C3.4412 4.27757 3.48578 4.4606 3.57628 4.62607C3.68748 4.79876 3.85021 4.93941 4.04571 5.03184C4.33962 5.17827 4.65109 5.29363 4.97399 5.37564C5.36647 5.48385 5.86187 5.61038 6.4602 5.75523C7.10254 5.90438 7.73256 6.0942 8.34562 6.3233C8.85204 6.50882 9.32357 6.76464 9.74333 7.08159C10.1124 7.36409 10.4055 7.71923 10.6004 8.12C10.8049 8.57189 10.9032 9.05752 10.889 9.54584V9.58336C10.9009 10.1581 10.7724 10.7282 10.5129 11.2527C10.2716 11.7288 9.91284 12.1483 9.46437 12.4787C8.98885 12.8237 8.44389 13.0816 7.85984 13.2378C7.18906 13.4183 6.49224 13.5066 5.79261 13.4996" fill="black"/>
<path d="M13.2249 0.762966C13.2254 0.693283 13.2529 0.626616 13.3014 0.577509C13.35 0.528403 13.4157 0.500845 13.4841 0.500847H18.4433C19.14 0.489109 19.8337 0.598396 20.4943 0.824008C21.0623 1.01992 21.5846 1.33283 22.0286 1.74322C22.449 2.14001 22.7799 2.6248 22.9986 3.16423C23.2289 3.7453 23.3434 4.36717 23.3354 4.99369V5.03049C23.35 5.71562 23.2126 6.39528 22.9333 7.01883C22.6772 7.57464 22.2999 8.06369 21.8302 8.44882C21.3431 8.84212 20.7854 9.13513 20.1883 9.31148C19.5342 9.50763 18.8553 9.60472 18.1735 9.59963H16.2926C16.2587 9.59963 16.2251 9.60643 16.1938 9.61965C16.1624 9.63287 16.1339 9.65224 16.1099 9.67666C16.0859 9.70109 16.0669 9.73008 16.0539 9.76199C16.0409 9.7939 16.0343 9.82811 16.0343 9.86265V13.237C16.0343 13.3067 16.007 13.3736 15.9586 13.423C15.9101 13.4723 15.8444 13.5 15.7759 13.5H13.4833C13.4147 13.5 13.3488 13.4723 13.3003 13.423C13.2517 13.3737 13.2242 13.3068 13.224 13.237L13.2249 0.762966ZM18.2608 7.05384C18.9662 7.05384 19.5132 6.86533 19.9018 6.4883C20.0908 6.30982 20.2406 6.09258 20.3412 5.8509C20.4418 5.60922 20.491 5.34858 20.4855 5.08615V5.04844C20.4855 4.40511 20.2821 3.91588 19.8753 3.58075C19.4685 3.24562 18.9121 3.07866 18.2061 3.07985H16.2926C16.2241 3.07985 16.1584 3.10756 16.1099 3.15689C16.0615 3.20621 16.0343 3.27311 16.0343 3.34287V6.79082C16.0341 6.82539 16.0407 6.85965 16.0537 6.89161C16.0666 6.92358 16.0857 6.95262 16.1097 6.97707C16.1337 7.00151 16.1622 7.02088 16.1936 7.03406C16.225 7.04723 16.2587 7.05396 16.2926 7.05384H18.2608Z" fill="black"/>
<path d="M29.335 0.740618C29.3682 0.671767 29.419 0.613163 29.482 0.570861C29.545 0.528558 29.618 0.504093 29.6935 0.499992H31.7593C31.8347 0.504093 31.9077 0.528558 31.9708 0.570861C32.0338 0.613163 32.0845 0.671767 32.1178 0.740618L37.3177 13.1364C37.3344 13.1761 37.3412 13.2193 37.3373 13.2623C37.3335 13.3053 37.3193 13.3466 37.2959 13.3826C37.2725 13.4186 37.2406 13.4482 37.2032 13.4687C37.1657 13.4892 37.1239 13.4999 37.0814 13.5H34.8021C34.7274 13.4955 34.6553 13.4706 34.5934 13.4279C34.5315 13.3853 34.4822 13.3264 34.4506 13.2576L33.4841 10.8513C33.4524 10.7826 33.4031 10.7238 33.3412 10.6811C33.2794 10.6385 33.2073 10.6135 33.1326 10.6089H28.2569C28.1822 10.6134 28.1101 10.6383 28.0482 10.681C27.9863 10.7237 27.937 10.7825 27.9054 10.8513L26.9389 13.2576C26.9073 13.3264 26.858 13.3853 26.7961 13.4279C26.7342 13.4706 26.6621 13.4955 26.5874 13.5H24.3714C24.3289 13.4999 24.287 13.4892 24.2496 13.4687C24.2121 13.4482 24.1803 13.4186 24.1569 13.3826C24.1335 13.3466 24.1192 13.3053 24.1154 13.2623C24.1116 13.2193 24.1183 13.1761 24.135 13.1364L29.335 0.740618ZM32.2346 7.73747L30.9272 4.5015C30.9078 4.45363 30.8748 4.41268 30.8324 4.38386C30.79 4.35504 30.7401 4.33965 30.689 4.33965C30.638 4.33965 30.5881 4.35504 30.5457 4.38386C30.5033 4.41268 30.4703 4.45363 30.4509 4.5015L29.1443 7.73747C29.1291 7.77694 29.1235 7.81958 29.1281 7.86171C29.1327 7.90384 29.1474 7.9442 29.1709 7.9793C29.1943 8.01439 29.2258 8.04317 29.2627 8.06315C29.2995 8.08313 29.3407 8.0937 29.3825 8.09395H31.9965C32.0382 8.09349 32.0792 8.08278 32.116 8.06275C32.1527 8.04272 32.1841 8.01395 32.2075 7.97892C32.2309 7.94388 32.2456 7.90362 32.2503 7.86157C32.2551 7.81952 32.2497 7.77694 32.2346 7.73747Z" fill="black"/>
<path d="M39.672 0.762129C39.6723 0.692524 39.7018 0.625851 39.7541 0.576716C39.8064 0.527582 39.8772 0.499992 39.951 0.499992H45.9752C47.7212 0.499992 49.0603 0.939581 49.9927 1.81876C50.7809 2.56088 51.1747 3.55137 51.1741 4.79024V4.82705C51.1741 5.87918 50.9018 6.73681 50.3573 7.39994C49.8785 7.98107 49.253 8.43998 48.538 8.73486C48.5002 8.74951 48.4664 8.77189 48.4389 8.80038C48.4114 8.82887 48.3909 8.86275 48.379 8.89959C48.3671 8.93643 48.364 8.97531 48.3699 9.01342C48.3758 9.05153 48.3906 9.08793 48.4133 9.11999L51.2912 13.0879C51.32 13.1275 51.3368 13.1737 51.3398 13.2216C51.3428 13.2695 51.3318 13.3172 51.3081 13.3596C51.2844 13.4021 51.2488 13.4376 51.2052 13.4623C51.1616 13.4871 51.1117 13.5001 51.0608 13.5H48.043L45.0918 9.33993H42.984C42.9101 9.33993 42.8391 9.36764 42.7868 9.41697C42.7345 9.4663 42.7051 9.5332 42.7051 9.60296V13.237C42.7051 13.3067 42.6757 13.3736 42.6234 13.423C42.5711 13.4723 42.5001 13.5 42.4262 13.5H39.951C39.877 13.5 39.806 13.4723 39.7537 13.423C39.7014 13.3736 39.672 13.3067 39.672 13.237V0.762129ZM45.7772 6.81282C46.5255 6.81282 47.0995 6.64585 47.4994 6.31189C47.8992 5.97793 48.0998 5.53206 48.101 4.97427V4.93747C48.101 4.31803 47.8906 3.85361 47.4699 3.54419C47.0491 3.23477 46.4649 3.08007 45.7172 3.08007H42.984C42.9101 3.08007 42.8391 3.10778 42.7868 3.15711C42.7345 3.20643 42.7051 3.27334 42.7051 3.3431V6.54979C42.7051 6.61955 42.7345 6.68645 42.7868 6.73578C42.8391 6.78511 42.9101 6.81282 42.984 6.81282H45.7772Z" fill="black"/>
<path d="M54.7179 0.501787H57.0715C57.1063 0.501787 57.1408 0.508588 57.173 0.5218C57.2052 0.535013 57.2344 0.554377 57.2591 0.57879C57.2837 0.603204 57.3032 0.632187 57.3165 0.664084C57.3299 0.695981 57.3367 0.730169 57.3367 0.764694V5.51139C57.3366 5.56432 57.3525 5.61607 57.3825 5.65987C57.4125 5.70367 57.4551 5.73747 57.5048 5.75686C57.5545 5.77626 57.6089 5.78033 57.661 5.76855C57.713 5.75677 57.7603 5.72969 57.7966 5.69085L62.6549 0.501787H65.5145C65.5673 0.500953 65.6191 0.515757 65.6634 0.544305C65.7076 0.572853 65.7423 0.613846 65.7629 0.662033C65.7835 0.71022 65.7891 0.763408 65.7791 0.814788C65.769 0.866167 65.7437 0.913399 65.7064 0.950435L60.9549 5.85864C60.9111 5.90313 60.8848 5.96164 60.8807 6.02364C60.8765 6.08565 60.8948 6.14709 60.9323 6.19692L66.0676 13.0801C66.097 13.1192 66.1148 13.1657 66.1191 13.2144C66.1233 13.263 66.1138 13.3119 66.0917 13.3555C66.0695 13.3991 66.0355 13.4357 65.9935 13.4612C65.9515 13.4867 65.9032 13.5002 65.8539 13.5H62.9183L59.0394 8.21853C59.0166 8.18752 58.9872 8.16185 58.9532 8.14333C58.9193 8.1248 58.8817 8.11387 58.843 8.11131C58.8044 8.10874 58.7656 8.1146 58.7295 8.12847C58.6934 8.14235 58.6607 8.1639 58.6339 8.19161L57.3358 9.52499V13.2353C57.3358 13.305 57.3079 13.3719 57.2581 13.4212C57.2084 13.4705 57.1409 13.4982 57.0706 13.4982H54.717C54.6467 13.4982 54.5792 13.4705 54.5295 13.4212C54.4798 13.3719 54.4518 13.305 54.4518 13.2353V0.762901C54.4518 0.693173 54.4798 0.626302 54.5295 0.576997C54.5792 0.527692 54.6467 0.499992 54.717 0.499992" fill="black"/>
<path d="M82.7122 0.503581H85.0445C85.0795 0.502866 85.1143 0.509133 85.1468 0.522016C85.1794 0.534898 85.2091 0.554139 85.2341 0.578615C85.2592 0.603091 85.2791 0.632312 85.2927 0.664575C85.3064 0.696837 85.3135 0.731494 85.3136 0.766525V10.6561C85.3134 10.6906 85.3201 10.7247 85.3332 10.7566C85.3464 10.7885 85.3656 10.8175 85.39 10.842C85.4143 10.8664 85.4432 10.8858 85.4751 10.899C85.5069 10.9122 85.541 10.919 85.5755 10.919H91.5274C91.5971 10.9193 91.664 10.9472 91.7133 10.9966C91.7625 11.0461 91.7902 11.113 91.7902 11.1829V13.2371C91.7902 13.3068 91.7625 13.3737 91.7132 13.423C91.6639 13.4723 91.5971 13.5 91.5274 13.5H82.7184C82.6487 13.5 82.5819 13.4723 82.5326 13.423C82.4833 13.3737 82.4556 13.3068 82.4556 13.2371V0.762936C82.4556 0.728405 82.4624 0.694213 82.4756 0.662311C82.4888 0.63041 82.5082 0.601423 82.5326 0.577006C82.557 0.55259 82.586 0.533221 82.6179 0.520007C82.6497 0.506793 82.6839 0.499992 82.7184 0.499992" fill="black"/>
<path d="M99.1394 13.5C97.3432 13.5 95.9285 12.9948 94.8955 11.9845C93.8625 10.9741 93.346 9.46517 93.346 7.45762V0.775115C93.3458 0.73903 93.3527 0.703276 93.3662 0.669902C93.3797 0.636528 93.3996 0.606191 93.4247 0.580631C93.4497 0.555071 93.4795 0.53479 93.5123 0.520953C93.5451 0.507115 93.5803 0.499992 93.6158 0.499992H96.0182C96.09 0.499992 96.1588 0.528978 96.2096 0.580573C96.2604 0.632169 96.2889 0.702148 96.2889 0.775115V7.38062C96.2889 8.49551 96.5442 9.33403 97.0549 9.89617C97.5656 10.4583 98.2739 10.74 99.1801 10.7413C100.085 10.7413 100.793 10.4693 101.305 9.92528C101.817 9.38129 102.072 8.56531 102.069 7.47734V0.777932C102.069 0.741723 102.076 0.70587 102.089 0.672429C102.103 0.638988 102.123 0.608618 102.148 0.583058C102.173 0.557498 102.203 0.537252 102.236 0.523481C102.269 0.50971 102.305 0.502686 102.34 0.502809H104.743C104.814 0.502809 104.883 0.531764 104.934 0.583333C104.985 0.634902 105.014 0.704879 105.014 0.777932V7.35996C105.014 8.39661 104.877 9.2971 104.603 10.0614C104.354 10.7812 103.949 11.4349 103.418 11.9741C102.896 12.4945 102.264 12.8867 101.57 13.1207C100.786 13.3812 99.9655 13.5081 99.1413 13.4963" fill="black"/>
<path d="M113.146 13.4979C112.08 13.4974 111.022 13.3291 110.02 13.0005C109.079 12.6947 108.207 12.2355 107.447 11.6455C107.39 11.6006 107.355 11.5373 107.349 11.4691C107.343 11.401 107.366 11.3334 107.414 11.2807L108.872 9.69444C108.919 9.64497 108.985 9.61384 109.057 9.6075C109.128 9.60116 109.2 9.62011 109.256 9.66041C109.796 10.0433 110.383 10.3683 111.005 10.6289C111.697 10.9096 112.447 11.0513 113.204 11.0443C113.841 11.0443 114.335 10.939 114.688 10.7284C114.852 10.6376 114.987 10.5092 115.079 10.3561C115.172 10.2029 115.218 10.0304 115.214 9.85586V9.81922C115.218 9.6544 115.181 9.49085 115.105 9.34106C115.007 9.17914 114.861 9.04482 114.685 8.95278C114.414 8.80435 114.127 8.68322 113.828 8.59154C113.462 8.47113 112.987 8.3449 112.401 8.21285C111.752 8.07253 111.112 7.89771 110.486 7.68932C109.963 7.52171 109.471 7.28153 109.029 6.97732C108.632 6.69545 108.314 6.33212 108.102 5.91718C107.883 5.49661 107.773 4.97221 107.773 4.34659V4.30994C107.764 3.77203 107.885 3.23884 108.128 2.74808C108.363 2.288 108.704 1.8789 109.128 1.54832C109.577 1.19995 110.099 0.935994 110.662 0.771754C111.297 0.584854 111.961 0.493196 112.629 0.500391C113.587 0.491484 114.539 0.631973 115.445 0.915724C116.211 1.16295 116.933 1.51326 117.585 1.95493C117.644 1.99573 117.683 2.05556 117.695 2.12201C117.707 2.18846 117.69 2.25643 117.647 2.3118L116.364 3.99757C116.322 4.05143 116.258 4.08825 116.186 4.10029C116.114 4.11233 116.04 4.09866 115.979 4.06214C115.474 3.75981 114.938 3.50099 114.379 3.28906C113.812 3.07198 113.204 2.95842 112.589 2.95487C111.991 2.95487 111.542 3.06016 111.242 3.27074C111.103 3.35954 110.991 3.47723 110.913 3.6139C110.835 3.75056 110.794 3.9022 110.795 4.05603V4.0918C110.789 4.27631 110.833 4.45931 110.923 4.62493C111.034 4.79763 111.197 4.93827 111.393 5.03067C111.687 5.17709 111.998 5.29244 112.321 5.37445C112.714 5.48265 113.207 5.60917 113.807 5.75401C114.45 5.90289 115.08 6.0927 115.693 6.32204C116.199 6.50755 116.671 6.76335 117.09 7.08029C117.459 7.363 117.753 7.71804 117.948 8.11862C118.152 8.57073 118.25 9.05615 118.237 9.54436V9.58188C118.249 10.1566 118.12 10.7266 117.861 11.2511C117.62 11.7279 117.262 12.148 116.813 12.4787C116.337 12.8235 115.792 13.0813 115.208 13.2379C114.538 13.4183 113.842 13.5065 113.143 13.4996" fill="black"/>
</g>
</g>
</svg>
