<svg width="119" height="14" viewBox="0 0 119 14" fill="none" xmlns="http://www.w3.org/2000/svg">
<g clip-path="url(#clip0_461_1462)">
<path d="M79.7647 3.16382C79.5356 2.62407 79.1876 2.1392 78.7452 1.743C78.2789 1.33249 77.7302 1.0196 77.1333 0.823908C76.4397 0.598797 75.7116 0.489534 74.9802 0.500789H69.7711C69.6988 0.500789 69.6295 0.52859 69.5784 0.578077C69.5273 0.627564 69.4986 0.694684 69.4986 0.764669V2.82904C69.4986 2.89902 69.5273 2.96614 69.5784 3.01563C69.6295 3.06511 69.6988 3.09292 69.7711 3.09292H72.4498V3.08394H74.7318C75.4733 3.08394 76.0578 3.25118 76.4854 3.58567C76.913 3.92016 77.1274 4.40902 77.1287 5.05227V5.08997C77.1343 5.35234 77.0825 5.61289 76.9768 5.85452C76.871 6.09614 76.7137 6.31337 76.5151 6.49194C76.1054 6.86592 75.5301 7.05291 74.7892 7.05291H72.7214C72.6856 7.05291 72.6502 7.04608 72.6172 7.0328C72.5842 7.01953 72.5542 7.00008 72.529 6.97556C72.5038 6.95105 72.4838 6.92195 72.4702 6.88994C72.4566 6.85793 72.4497 6.82364 72.4498 6.78903V4.03355C72.4497 3.99889 72.4425 3.9646 72.4287 3.93263C72.4149 3.90066 72.3947 3.87164 72.3693 3.84722C72.3439 3.8228 72.3138 3.80346 72.2807 3.79031C72.2476 3.77716 72.2121 3.77045 72.1764 3.77056H69.7711C69.699 3.77056 69.6298 3.79824 69.5787 3.84754C69.5277 3.89683 69.4988 3.96372 69.4986 4.03355V6.78903C69.4986 6.82383 69.4915 6.85829 69.4777 6.89043C69.4639 6.92256 69.4436 6.95173 69.4181 6.97626C69.3926 7.00078 69.3624 7.02018 69.3291 7.03334C69.2958 7.04649 69.2602 7.05314 69.2242 7.05291H66.3926C66.3564 7.0529 66.3205 7.0599 66.287 7.0735C66.2536 7.08709 66.2233 7.10701 66.1979 7.13209C66.1726 7.15717 66.1526 7.1869 66.1392 7.21954C66.1259 7.25218 66.1194 7.28707 66.1201 7.32217L66.1377 9.33897C66.1385 9.40849 66.1675 9.47492 66.2185 9.52382C66.2695 9.57273 66.3384 9.60016 66.4102 9.60016H69.2242C69.2963 9.60016 69.3653 9.62786 69.4163 9.67718C69.4672 9.7265 69.4958 9.79339 69.4958 9.86314V13.237C69.4961 13.3069 69.5249 13.3738 69.576 13.423C69.627 13.4723 69.6962 13.5 69.7683 13.5H72.1782C72.214 13.5001 72.2494 13.4934 72.2826 13.4803C72.3157 13.4671 72.3458 13.4478 72.3712 13.4234C72.3966 13.3989 72.4167 13.3699 72.4305 13.3379C72.4443 13.306 72.4515 13.2717 72.4516 13.237V9.86134C72.4515 9.82677 72.4585 9.79252 72.4721 9.76056C72.4857 9.7286 72.5057 9.69957 72.5309 9.67512C72.5561 9.65068 72.5861 9.63131 72.6191 9.61814C72.6521 9.60496 72.6875 9.59824 72.7232 9.59836H74.6956C75.4123 9.60322 76.1258 9.50646 76.8135 9.31114C77.4409 9.1345 78.0268 8.84123 78.5385 8.4477C79.0323 8.06229 79.4294 7.57342 79.6998 7.0179C79.9816 6.44766 80.1222 5.78497 80.1216 5.02983V4.99303C80.1296 4.36654 80.0089 3.74475 79.7666 3.16382" fill="white"/>
<path d="M5.79646 13.4996C4.73111 13.499 3.67397 13.3307 2.67205 13.0022C1.73078 12.6964 0.85905 12.2372 0.0997955 11.6471C0.0427588 11.6023 0.00729946 11.5391 0.00100703 11.4709C-0.00528541 11.4028 0.0180892 11.3351 0.0661275 11.2823L1.5254 9.69593C1.57227 9.64627 1.63851 9.615 1.71024 9.60865C1.78197 9.60231 1.85362 9.62139 1.91018 9.6619C2.44967 10.0448 3.03619 10.3699 3.65804 10.6305C4.34936 10.9114 5.09958 11.0531 5.85706 11.0459C6.49387 11.0459 6.98799 10.9406 7.33942 10.73C7.50408 10.6394 7.6395 10.511 7.73204 10.3578C7.82459 10.2046 7.87099 10.032 7.86657 9.85737V9.82072C7.8702 9.65586 7.83271 9.49239 7.75691 9.34253C7.65907 9.1806 7.51396 9.04625 7.3375 8.95422C7.06792 8.80454 6.78117 8.68194 6.48233 8.58859C6.1155 8.46817 5.63998 8.34194 5.05576 8.20988C4.40627 8.06954 3.76644 7.89471 3.13955 7.68632C2.61643 7.5187 2.12513 7.27849 1.68316 6.97427C1.28499 6.69439 0.966102 6.33243 0.752959 5.91841C0.533635 5.49607 0.422048 4.97163 0.422048 4.34772V4.31107C0.412841 3.77303 0.534359 3.23974 0.777969 2.7491C1.013 2.2886 1.35414 1.87916 1.7784 1.54839C2.22958 1.1995 2.75278 0.935499 3.31751 0.771774C3.95261 0.584862 4.61706 0.493198 5.2847 0.500393C6.24285 0.491559 7.19556 0.632054 8.10129 0.915754C8.86524 1.16393 9.58405 1.51422 10.2339 1.95503C10.2929 1.99583 10.3323 2.05567 10.344 2.12212C10.3556 2.18858 10.3386 2.25655 10.2965 2.31193L9.0161 3.99868C8.97366 4.05254 8.90984 4.08936 8.83808 4.10141C8.76631 4.11345 8.69219 4.09977 8.63132 4.06325C8.12545 3.7609 7.58957 3.50207 7.03064 3.29012C6.46394 3.07303 5.8556 2.95946 5.24045 2.95591C4.64212 2.95591 4.19481 3.0615 3.89372 3.2718C3.75524 3.3606 3.64232 3.4783 3.56448 3.61498C3.48663 3.75166 3.44614 3.9033 3.44642 4.05714V4.09292C3.4412 4.27758 3.48578 4.4606 3.57628 4.62608C3.68748 4.79876 3.85021 4.93942 4.04571 5.03184C4.33962 5.17828 4.65109 5.29363 4.97399 5.37565C5.36647 5.48386 5.86187 5.61038 6.4602 5.75524C7.10254 5.90439 7.73256 6.09421 8.34562 6.3233C8.85204 6.50883 9.32357 6.76465 9.74333 7.0816C10.1124 7.3641 10.4055 7.71924 10.6004 8.12C10.8049 8.57189 10.9032 9.05753 10.889 9.54585V9.58337C10.9009 10.1582 10.7724 10.7282 10.5129 11.2527C10.2716 11.7288 9.91284 12.1483 9.46437 12.4787C8.98885 12.8237 8.44389 13.0816 7.85984 13.2378C7.18906 13.4183 6.49224 13.5066 5.79261 13.4996" fill="white"/>
<path d="M13.2249 0.762974C13.2254 0.693291 13.2529 0.626623 13.3014 0.577517C13.35 0.528411 13.4157 0.500853 13.4841 0.500854H18.4433C19.14 0.489116 19.8337 0.598403 20.4943 0.824016C21.0623 1.01993 21.5846 1.33283 22.0286 1.74323C22.449 2.14001 22.7799 2.62481 22.9986 3.16424C23.2289 3.74531 23.3434 4.36718 23.3354 4.99369V5.0305C23.35 5.71563 23.2126 6.39529 22.9333 7.01884C22.6772 7.57464 22.2999 8.06369 21.8302 8.44882C21.3431 8.84213 20.7854 9.13513 20.1883 9.31148C19.5342 9.50764 18.8553 9.60473 18.1735 9.59964H16.2926C16.2587 9.59964 16.2251 9.60644 16.1938 9.61966C16.1624 9.63288 16.1339 9.65225 16.1099 9.67667C16.0859 9.7011 16.0669 9.73009 16.0539 9.762C16.0409 9.79391 16.0343 9.82811 16.0343 9.86265V13.237C16.0343 13.3068 16.007 13.3737 15.9586 13.423C15.9101 13.4723 15.8444 13.5 15.7759 13.5H13.4833C13.4147 13.5 13.3488 13.4723 13.3003 13.423C13.2517 13.3737 13.2242 13.3068 13.224 13.237L13.2249 0.762974ZM18.2608 7.05384C18.9662 7.05384 19.5132 6.86533 19.9018 6.48831C20.0908 6.30983 20.2406 6.09259 20.3412 5.85091C20.4418 5.60923 20.491 5.34858 20.4855 5.08615V5.04845C20.4855 4.40512 20.2821 3.91589 19.8753 3.58076C19.4685 3.24563 18.9121 3.07866 18.2061 3.07986H16.2926C16.2241 3.07986 16.1584 3.10757 16.1099 3.1569C16.0615 3.20622 16.0343 3.27312 16.0343 3.34288V6.79083C16.0341 6.8254 16.0407 6.85966 16.0537 6.89162C16.0666 6.92358 16.0857 6.95263 16.1097 6.97707C16.1337 7.00152 16.1622 7.02089 16.1936 7.03407C16.225 7.04724 16.2587 7.05396 16.2926 7.05384H18.2608Z" fill="white"/>
<path d="M29.335 0.740625C29.3682 0.671775 29.419 0.613171 29.482 0.570868C29.545 0.528566 29.618 0.5041 29.6935 0.5H31.7593C31.8347 0.5041 31.9077 0.528566 31.9708 0.570868C32.0338 0.613171 32.0845 0.671775 32.1178 0.740625L37.3177 13.1364C37.3344 13.1761 37.3412 13.2193 37.3373 13.2623C37.3335 13.3053 37.3193 13.3466 37.2959 13.3826C37.2725 13.4186 37.2406 13.4482 37.2032 13.4687C37.1657 13.4892 37.1239 13.4999 37.0814 13.5H34.8021C34.7274 13.4955 34.6553 13.4706 34.5934 13.4279C34.5315 13.3853 34.4822 13.3264 34.4506 13.2576L33.4841 10.8514C33.4524 10.7826 33.4031 10.7238 33.3412 10.6811C33.2794 10.6385 33.2073 10.6135 33.1326 10.6089H28.2569C28.1822 10.6134 28.1101 10.6383 28.0482 10.681C27.9863 10.7237 27.937 10.7825 27.9054 10.8514L26.9389 13.2576C26.9073 13.3264 26.858 13.3853 26.7961 13.4279C26.7342 13.4706 26.6621 13.4955 26.5874 13.5H24.3714C24.3289 13.4999 24.287 13.4892 24.2496 13.4687C24.2121 13.4482 24.1803 13.4186 24.1569 13.3826C24.1335 13.3466 24.1192 13.3053 24.1154 13.2623C24.1116 13.2193 24.1183 13.1761 24.135 13.1364L29.335 0.740625ZM32.2346 7.73748L30.9272 4.50151C30.9078 4.45363 30.8748 4.41268 30.8324 4.38387C30.79 4.35505 30.7401 4.33966 30.689 4.33966C30.638 4.33966 30.5881 4.35505 30.5457 4.38387C30.5033 4.41268 30.4703 4.45363 30.4509 4.50151L29.1443 7.73748C29.1291 7.77694 29.1235 7.81958 29.1281 7.86172C29.1327 7.90385 29.1474 7.94421 29.1709 7.97931C29.1943 8.0144 29.2258 8.04318 29.2627 8.06316C29.2995 8.08313 29.3407 8.09371 29.3825 8.09396H31.9965C32.0382 8.0935 32.0792 8.08279 32.116 8.06276C32.1527 8.04273 32.1841 8.01396 32.2075 7.97893C32.2309 7.94389 32.2456 7.90363 32.2503 7.86158C32.2551 7.81953 32.2497 7.77695 32.2346 7.73748Z" fill="white"/>
<path d="M39.672 0.762137C39.6723 0.692531 39.7018 0.625859 39.7541 0.576724C39.8064 0.527589 39.8772 0.5 39.951 0.5H45.9752C47.7212 0.5 49.0603 0.939588 49.9927 1.81876C50.7809 2.56089 51.1747 3.55138 51.1741 4.79025V4.82705C51.1741 5.87919 50.9018 6.73682 50.3573 7.39995C49.8785 7.98108 49.253 8.43999 48.538 8.73487C48.5002 8.74952 48.4664 8.7719 48.4389 8.80039C48.4114 8.82887 48.3909 8.86276 48.379 8.8996C48.3671 8.93644 48.364 8.97532 48.3699 9.01343C48.3758 9.05154 48.3906 9.08794 48.4133 9.11999L51.2912 13.088C51.32 13.1275 51.3368 13.1737 51.3398 13.2216C51.3428 13.2695 51.3318 13.3172 51.3081 13.3597C51.2844 13.4021 51.2488 13.4376 51.2052 13.4623C51.1616 13.4871 51.1117 13.5001 51.0608 13.5H48.043L45.0918 9.33994H42.984C42.9101 9.33994 42.8391 9.36765 42.7868 9.41698C42.7345 9.46631 42.7051 9.53321 42.7051 9.60297V13.237C42.7051 13.3067 42.6757 13.3736 42.6234 13.423C42.5711 13.4723 42.5001 13.5 42.4262 13.5H39.951C39.877 13.5 39.806 13.4723 39.7537 13.423C39.7014 13.3736 39.672 13.3067 39.672 13.237V0.762137ZM45.7772 6.81283C46.5255 6.81283 47.0995 6.64585 47.4994 6.3119C47.8992 5.97794 48.0998 5.53207 48.101 4.97428V4.93747C48.101 4.31804 47.8906 3.85362 47.4699 3.5442C47.0491 3.23478 46.4649 3.08007 45.7172 3.08007H42.984C42.9101 3.08007 42.8391 3.10779 42.7868 3.15711C42.7345 3.20644 42.7051 3.27335 42.7051 3.34311V6.5498C42.7051 6.61956 42.7345 6.68646 42.7868 6.73579C42.8391 6.78512 42.9101 6.81283 42.984 6.81283H45.7772Z" fill="white"/>
<path d="M54.7179 0.501795H57.0715C57.1063 0.501795 57.1408 0.508596 57.173 0.521808C57.2052 0.53502 57.2344 0.554385 57.2591 0.578798C57.2837 0.603211 57.3032 0.632194 57.3165 0.664092C57.3299 0.695989 57.3367 0.730176 57.3367 0.764702V5.51139C57.3366 5.56433 57.3525 5.61608 57.3825 5.65988C57.4125 5.70367 57.4551 5.73748 57.5048 5.75687C57.5545 5.77626 57.6089 5.78034 57.661 5.76856C57.713 5.75678 57.7603 5.72969 57.7966 5.69085L62.6549 0.501795H65.5145C65.5673 0.50096 65.6191 0.515765 65.6634 0.544313C65.7076 0.572861 65.7423 0.613853 65.7629 0.662041C65.7835 0.710228 65.7891 0.763416 65.7791 0.814795C65.769 0.866175 65.7437 0.913407 65.7064 0.950443L60.9549 5.85865C60.9111 5.90314 60.8848 5.96165 60.8807 6.02365C60.8765 6.08566 60.8948 6.1471 60.9323 6.19693L66.0676 13.0801C66.097 13.1192 66.1148 13.1657 66.1191 13.2144C66.1233 13.263 66.1138 13.3119 66.0917 13.3555C66.0695 13.3991 66.0355 13.4357 65.9935 13.4612C65.9515 13.4867 65.9032 13.5002 65.8539 13.5H62.9183L59.0394 8.21853C59.0166 8.18753 58.9872 8.16186 58.9532 8.14333C58.9193 8.12481 58.8817 8.11388 58.843 8.11132C58.8044 8.10875 58.7656 8.11461 58.7295 8.12848C58.6934 8.14235 58.6607 8.1639 58.6339 8.19161L57.3358 9.52499V13.2353C57.3358 13.305 57.3079 13.3719 57.2581 13.4212C57.2084 13.4705 57.1409 13.4982 57.0706 13.4982H54.717C54.6467 13.4982 54.5792 13.4705 54.5295 13.4212C54.4798 13.3719 54.4518 13.305 54.4518 13.2353V0.762908C54.4518 0.693181 54.4798 0.626309 54.5295 0.577005C54.5792 0.5277 54.6467 0.5 54.717 0.5" fill="white"/>
<path d="M82.7122 0.503589H85.0445C85.0795 0.502874 85.1143 0.509141 85.1468 0.522023C85.1794 0.534906 85.2091 0.554147 85.2341 0.578623C85.2592 0.603099 85.2791 0.63232 85.2927 0.664583C85.3064 0.696845 85.3135 0.731502 85.3136 0.766532V10.6561C85.3134 10.6906 85.3201 10.7248 85.3332 10.7566C85.3464 10.7885 85.3656 10.8175 85.39 10.842C85.4143 10.8664 85.4432 10.8858 85.4751 10.899C85.5069 10.9122 85.541 10.919 85.5755 10.919H91.5274C91.5971 10.9193 91.664 10.9472 91.7133 10.9966C91.7625 11.0461 91.7902 11.1131 91.7902 11.1829V13.2371C91.7902 13.3068 91.7625 13.3737 91.7132 13.423C91.6639 13.4723 91.5971 13.5 91.5274 13.5H82.7184C82.6487 13.5 82.5819 13.4723 82.5326 13.423C82.4833 13.3737 82.4556 13.3068 82.4556 13.2371V0.762943C82.4556 0.728413 82.4624 0.694221 82.4756 0.662319C82.4888 0.630417 82.5082 0.60143 82.5326 0.577014C82.557 0.552597 82.586 0.533229 82.6179 0.520014C82.6497 0.5068 82.6839 0.5 82.7184 0.5" fill="white"/>
<path d="M99.1394 13.5C97.3432 13.5 95.9285 12.9948 94.8955 11.9845C93.8625 10.9741 93.346 9.46518 93.346 7.45763V0.775123C93.3458 0.739037 93.3527 0.703283 93.3662 0.669909C93.3797 0.636535 93.3996 0.606198 93.4247 0.580638C93.4497 0.555078 93.4795 0.534798 93.5123 0.52096C93.5451 0.507122 93.5803 0.5 93.6158 0.5H96.0182C96.09 0.5 96.1588 0.528985 96.2096 0.580581C96.2604 0.632177 96.2889 0.702156 96.2889 0.775123V7.38063C96.2889 8.49552 96.5442 9.33404 97.0549 9.89618C97.5656 10.4583 98.2739 10.74 99.1801 10.7413C100.085 10.7413 100.793 10.4693 101.305 9.92529C101.817 9.3813 102.072 8.56532 102.069 7.47734V0.77794C102.069 0.741731 102.076 0.705878 102.089 0.672437C102.103 0.638996 102.123 0.608625 102.148 0.583066C102.173 0.557506 102.203 0.53726 102.236 0.523489C102.269 0.509718 102.305 0.502693 102.34 0.502817H104.743C104.814 0.502816 104.883 0.531772 104.934 0.583341C104.985 0.634909 105.014 0.704886 105.014 0.77794V7.35997C105.014 8.39661 104.877 9.2971 104.603 10.0614C104.354 10.7812 103.949 11.4349 103.418 11.9742C102.896 12.4945 102.264 12.8867 101.57 13.1207C100.786 13.3812 99.9655 13.5081 99.1413 13.4963" fill="white"/>
<path d="M113.146 13.4979C112.08 13.4974 111.022 13.3291 110.02 13.0005C109.079 12.6947 108.207 12.2355 107.447 11.6455C107.39 11.6006 107.355 11.5373 107.349 11.4692C107.343 11.401 107.366 11.3334 107.414 11.2807L108.872 9.69445C108.919 9.64498 108.985 9.61385 109.057 9.60751C109.128 9.60117 109.2 9.62012 109.256 9.66042C109.796 10.0433 110.383 10.3683 111.005 10.629C111.697 10.9096 112.447 11.0513 113.204 11.0443C113.841 11.0443 114.335 10.939 114.688 10.7284C114.852 10.6377 114.987 10.5092 115.079 10.3561C115.172 10.2029 115.218 10.0304 115.214 9.85587V9.81923C115.218 9.65441 115.181 9.49086 115.105 9.34107C115.007 9.17915 114.861 9.04483 114.685 8.95278C114.414 8.80436 114.127 8.68322 113.828 8.59155C113.462 8.47114 112.987 8.34491 112.401 8.21286C111.752 8.07253 111.112 7.89772 110.486 7.68933C109.963 7.52172 109.471 7.28153 109.029 6.97733C108.632 6.69546 108.314 6.33213 108.102 5.91718C107.883 5.49662 107.773 4.97221 107.773 4.3466V4.30995C107.764 3.77203 107.885 3.23885 108.128 2.74809C108.363 2.28801 108.704 1.87891 109.128 1.54833C109.577 1.19996 110.099 0.936002 110.662 0.771761C111.297 0.584862 111.961 0.493204 112.629 0.500398C113.587 0.491492 114.539 0.631981 115.445 0.915731C116.211 1.16296 116.933 1.51327 117.585 1.95494C117.644 1.99573 117.683 2.05557 117.695 2.12202C117.707 2.18847 117.69 2.25644 117.647 2.31181L116.364 3.99758C116.322 4.05143 116.258 4.08826 116.186 4.1003C116.114 4.11234 116.04 4.09866 115.979 4.06215C115.474 3.75982 114.938 3.501 114.379 3.28907C113.812 3.07199 113.204 2.95842 112.589 2.95488C111.991 2.95488 111.542 3.06017 111.242 3.27074C111.103 3.35954 110.991 3.47724 110.913 3.6139C110.835 3.75057 110.794 3.90221 110.795 4.05604V4.09181C110.789 4.27632 110.833 4.45932 110.923 4.62494C111.034 4.79764 111.197 4.93827 111.393 5.03067C111.687 5.1771 111.998 5.29245 112.321 5.37446C112.714 5.48266 113.207 5.60918 113.807 5.75402C114.45 5.90289 115.08 6.09271 115.693 6.32205C116.199 6.50756 116.671 6.76336 117.09 7.08029C117.459 7.36301 117.753 7.71805 117.948 8.11863C118.152 8.57074 118.25 9.05616 118.237 9.54437V9.58189C118.249 10.1566 118.12 10.7266 117.861 11.2511C117.62 11.7279 117.262 12.1481 116.813 12.4788C116.337 12.8235 115.792 13.0813 115.208 13.2379C114.538 13.4183 113.842 13.5065 113.143 13.4996" fill="white"/>
</g>
<defs>
<clipPath id="clip0_461_1462">
<rect width="118.238" height="13" fill="white" transform="translate(0 0.5)"/>
</clipPath>
</defs>
</svg>
