<svg width="35" height="35" viewBox="0 0 35 35" fill="none" xmlns="http://www.w3.org/2000/svg">
<path d="M17.75 33.9166C26.8166 33.9166 34.1666 26.5666 34.1666 17.5C34.1666 8.43338 26.8166 1.08344 17.75 1.08344C8.68338 1.08344 1.33344 8.43338 1.33344 17.5C1.33344 26.5666 8.68338 33.9166 17.75 33.9166Z" fill="#EEEEEE" stroke="#EEEEEE" stroke-width="0.83313" stroke-miterlimit="10"/>
<path d="M17.7497 20.5968C20.8852 20.5968 23.4271 18.0549 23.4271 14.9194C23.4271 11.7838 20.8852 9.24194 17.7497 9.24194C14.6141 9.24194 12.0723 11.7838 12.0723 14.9194C12.0723 18.0549 14.6141 20.5968 17.7497 20.5968Z" fill="white"/>
<path fill-rule="evenodd" clip-rule="evenodd" d="M29.2357 28.6394C26.3277 31.6371 22.2565 33.5001 17.7501 33.5001C13.2438 33.5001 9.1726 31.6371 6.26465 28.6394C8.65017 24.742 12.8997 22.1453 17.7502 22.1453C22.6006 22.1453 26.8501 24.742 29.2357 28.6394Z" fill="white"/>
</svg>
