<svg width="42" height="42" viewBox="0 0 42 42" fill="none" xmlns="http://www.w3.org/2000/svg">
<rect width="42" height="42" rx="8" fill="white"/>
<path fill-rule="evenodd" clip-rule="evenodd" d="M25 20.3H27.5633C27.238 17.214 24.786 14.762 21.7 14.4367V17H20.3V14.4367C17.214 14.762 14.762 17.214 14.4367 20.3H17V21.7H14.4367C14.762 24.786 17.214 27.238 20.3 27.5633V25H21.7V27.5633C24.786 27.238 27.238 24.786 27.5633 21.7H25V20.3ZM29 21C29 25.4183 25.4183 29 21 29C16.5817 29 13 25.4183 13 21C13 16.5817 16.5817 13 21 13C25.4183 13 29 16.5817 29 21ZM21 22C21.5523 22 22 21.5523 22 21C22 20.4477 21.5523 20 21 20C20.4477 20 20 20.4477 20 21C20 21.5523 20.4477 22 21 22Z" fill="black"/>
</svg>
