<svg width="44" height="57" viewBox="0 0 44 57" fill="none" xmlns="http://www.w3.org/2000/svg">
<ellipse opacity="0.3" cx="22" cy="54" rx="11" ry="3" fill="black"/>
<path d="M22.5 46.5002L26.7195 46.5002C27.6065 46.5002 28.0544 47.5693 27.4322 48.2016L23.2735 52.4274C22.8591 52.8485 22.172 52.8205 21.7933 52.367L18.2639 48.1412C17.7201 47.49 18.1831 46.5002 19.0315 46.5002L22.5 46.5002Z" fill="#636C73"/>
<path d="M0 13.4721C0 11.957 0.856009 10.572 2.21115 9.89443L20.2111 0.894427C21.3373 0.331372 22.6627 0.331372 23.7889 0.894427L41.7889 9.89443C43.144 10.572 44 11.957 44 13.4721V44C44 46.2091 42.2091 48 40 48H4C1.79086 48 0 46.2091 0 44V13.4721Z" fill="#636C73"/>
<path d="M15.2559 22.3672V26.3633H16.7793V27.7578H15.2559V33.1484H13.5918V22.3672H15.2559ZM7.16992 24.5938V23.2461H12.1621V27.5H8.85742V29.2812C10.2988 29.2695 11.5469 29.1992 12.9004 28.9766L13.0527 30.3125C11.4238 30.6113 9.92969 30.6758 8.0957 30.6758H7.18164V26.1875H10.4746V24.5938H7.16992ZM26.916 27.5352V28.8594H22.9434V30.6289H21.2324V28.8594H17.084V27.5352H26.916ZM18.0684 24.8047C18.0684 23.4336 19.6445 22.5605 21.9941 22.5547C24.3379 22.5605 25.9082 23.4336 25.9082 24.8047C25.9082 26.1875 24.3379 27.0488 21.9941 27.043C19.6445 27.0488 18.0684 26.1875 18.0684 24.8047ZM18.2207 32.9492V29.7031H19.9199V31.5898H25.8379V32.9492H18.2207ZM19.8965 24.8047C19.8906 25.4023 20.7051 25.7012 21.9941 25.707C23.2949 25.7012 24.0977 25.4023 24.0918 24.8047C24.0977 24.1777 23.2949 23.8789 21.9941 23.8789C20.7051 23.8789 19.8906 24.1777 19.8965 24.8047ZM31.7324 25.1797C31.7324 26.8906 32.4883 28.7539 34.3574 29.5156L33.4551 30.8398C32.2012 30.3184 31.375 29.3105 30.9004 28.0801C30.4258 29.4336 29.582 30.5469 28.3223 31.1094L27.3613 29.7852C29.2246 28.9648 30.0098 26.9902 30.0098 25.1797V24.7578H27.8066V23.3867H33.8887V24.7578H31.7324V25.1797ZM34.8027 33.125V22.3672H36.502V33.125H34.8027Z" fill="white"/>
</svg>
