<svg width="44" height="57" viewBox="0 0 44 57" fill="none" xmlns="http://www.w3.org/2000/svg">
<ellipse opacity="0.3" cx="22" cy="54" rx="11" ry="3" fill="black"/>
<path d="M22.5 46.5002L26.7195 46.5002C27.6065 46.5002 28.0544 47.5693 27.4322 48.2016L23.2735 52.4274C22.8591 52.8485 22.172 52.8205 21.7933 52.367L18.2639 48.1412C17.7201 47.49 18.1831 46.5002 19.0315 46.5002L22.5 46.5002Z" fill="black"/>
<path d="M0 13.4721C0 11.957 0.856009 10.572 2.21115 9.89443L20.2111 0.894427C21.3373 0.331372 22.6627 0.331372 23.7889 0.894427L41.7889 9.89443C43.144 10.572 44 11.957 44 13.4721V44C44 46.2091 42.2091 48 40 48H4C1.79086 48 0 46.2091 0 44V13.4721Z" fill="black"/>
<path d="M11.623 22.8828C13.9434 22.877 15.707 24.0723 15.7129 25.8594C15.707 27.4941 14.3535 28.5898 12.4551 28.8301V30.5352H16.5566V31.9062H6.72461V30.5352H10.791V28.8301C8.89844 28.5898 7.55078 27.4941 7.55664 25.8594C7.55078 24.0723 9.30859 22.877 11.623 22.8828ZM9.23242 25.8594C9.22656 26.9609 10.1992 27.541 11.623 27.5469C13.0645 27.541 14.0371 26.9609 14.0371 25.8594C14.0371 24.8281 13.0645 24.2188 11.623 24.2188C10.1992 24.2188 9.22656 24.8281 9.23242 25.8594ZM26.1777 22.3672V33.125H24.4668V22.3672H26.1777ZM17.0723 29.3516C17.4355 29.3516 17.8281 29.3457 18.2324 29.3398V24.6523H17.3652V23.3047H23.4355V24.6523H22.5566V29.1582C22.9902 29.123 23.4121 29.082 23.8223 29.0352L23.9043 30.2773C21.6367 30.6582 19.1816 30.7051 17.2246 30.7109L17.0723 29.3516ZM19.8613 29.3047C20.207 29.2988 20.5645 29.2812 20.916 29.2637V24.6523H19.8613V29.3047ZM33.2207 23.7266C33.2148 25.2266 34.3809 26.9258 36.9941 27.3594L36.2559 28.7539C34.3281 28.3906 33.0098 27.3711 32.3184 26.0586C31.6211 27.3594 30.291 28.3848 28.3809 28.7539L27.666 27.3594C30.2207 26.9141 31.4043 25.2031 31.416 23.7266V22.9766H33.2207V23.7266ZM27.4668 31.8477V30.4648H37.2988V31.8477H27.4668Z" fill="white"/>
</svg>
