<svg width="44" height="57" viewBox="0 0 44 57" fill="none" xmlns="http://www.w3.org/2000/svg">
<ellipse opacity="0.3" cx="22" cy="54" rx="11" ry="3" fill="black"/>
<path d="M22.5 46.5002L26.7195 46.5002C27.6065 46.5002 28.0544 47.5693 27.4322 48.2016L23.2735 52.4274C22.8591 52.8485 22.172 52.8205 21.7933 52.367L18.2639 48.1412C17.7201 47.49 18.1831 46.5002 19.0315 46.5002L22.5 46.5002Z" fill="#636C73"/>
<path d="M0 13.4721C0 11.957 0.856009 10.572 2.21115 9.89443L20.2111 0.894427C21.3373 0.331372 22.6627 0.331372 23.7889 0.894427L41.7889 9.89443C43.144 10.572 44 11.957 44 13.4721V44C44 46.2091 42.2091 48 40 48H4C1.79086 48 0 46.2091 0 44V13.4721Z" fill="#636C73"/>
<path d="M21.7383 22.3672V33.125H20.1445V22.3672H21.7383ZM12.1641 29.8906C13.7695 28.8945 14.2676 26.9727 14.2617 25.1914V24.7578H12.5977V23.4102H17.4141V24.7578H15.8906V25.1914C15.8848 26.9551 16.3535 28.7422 17.9531 29.6562L16.9805 30.8867C16.0488 30.3477 15.4512 29.457 15.0938 28.3848C14.7305 29.5566 14.1152 30.5527 13.1719 31.1328L12.1641 29.8906ZM16.6641 27.3477V26H17.9531V22.5195H19.5234V32.6445H17.9531V27.3477H16.6641ZM32.0977 23.4102V24.7344H23.2383V23.4102H26.8477V22.3672H28.5117V23.4102H32.0977ZM22.7812 30.5938V29.2578H32.6133V30.5938H30.4336V33.1367H28.7227V30.5938H26.6719V33.1367H24.9727V30.5938H22.7812ZM23.9062 26.9492C23.9062 25.748 25.3184 25.0977 27.6797 25.0977C30.0293 25.0977 31.4473 25.748 31.4531 26.9492C31.4473 28.1445 30.0293 28.8066 27.6797 28.8125C25.3184 28.8066 23.9062 28.1445 23.9062 26.9492ZM25.6641 26.9492C25.6582 27.3652 26.2969 27.5469 27.6797 27.5469C29.0508 27.5469 29.6953 27.3652 29.707 26.9492C29.6953 26.5156 29.0508 26.3516 27.6797 26.3398C26.2969 26.3516 25.6582 26.5156 25.6641 26.9492Z" fill="white"/>
</svg>
