<svg width="18" height="18" viewBox="0 0 18 18" fill="none" xmlns="http://www.w3.org/2000/svg">
<path fill-rule="evenodd" clip-rule="evenodd" d="M2.63277 2.40455C2.83914 2.277 3.09684 2.26541 3.31383 2.3739L7.00078 4.21738L10.6877 2.3739C10.8848 2.27537 11.1168 2.27537 11.3138 2.3739L15.3138 4.3739C15.551 4.49248 15.7008 4.73486 15.7008 5V15C15.7008 15.2426 15.5752 15.4679 15.3688 15.5955C15.1624 15.723 14.9047 15.7346 14.6877 15.6261L11.0008 13.7826L7.31383 15.6261C7.11676 15.7246 6.8848 15.7246 6.68773 15.6261L2.68773 13.6261C2.45058 13.5075 2.30078 13.2651 2.30078 13V3C2.30078 2.7574 2.4264 2.53209 2.63277 2.40455ZM3.70078 4.13263V12.5674L6.30078 13.8674V5.43263L3.70078 4.13263ZM10.3008 12.5674L7.70078 13.8674V5.43263L10.3008 4.13263V12.5674ZM11.7008 12.5674L14.3008 13.8674V5.43263L11.7008 4.13263V12.5674Z" fill="white"/>
</svg>
